ISO-10303-21;
HEADER;
/* Generated by software containing ST-Developer
 * from STEP Tools, Inc. (www.steptools.com) 
 */

FILE_DESCRIPTION(
/* description */ (''),
/* implementation_level */ '2;1');

FILE_NAME(
/* name */ 'FingerPrint.step',
/* time_stamp */ '2026-10-05T19:11:14+02:00',
/* author */ (''),
/* organization */ (''),
/* preprocessor_version */ 'ST-DEVELOPER v20.2',
/* originating_system */ 'Autodesk Translation Framework v15.15.0.0',
/* authorisation */ '');

FILE_SCHEMA (('AUTOMOTIVE_DESIGN { 1 0 10303 214 3 1 1 }'));
ENDSEC;

DATA;
#10=MECHANICAL_DESIGN_GEOMETRIC_PRESENTATION_REPRESENTATION('',(#13),#1588);
#11=SHAPE_REPRESENTATION_RELATIONSHIP('SRR','None',#1595,#12);
#12=ADVANCED_BREP_SHAPE_REPRESENTATION('',(#14),#1587);
#13=STYLED_ITEM('',(#1604),#14);
#14=MANIFOLD_SOLID_BREP('unequal crimp',#910);
#15=B_SPLINE_CURVE_WITH_KNOTS('',3,(#1440,#1441,#1442,#1443,#1444,#1445,
#1446,#1447,#1448,#1449),.UNSPECIFIED.,.F.,.F.,(4,2,2,2,4),(3.54480171527244,
3.82877409641804,4.11274647756364,4.53217715379051,4.95160783001739),
 .UNSPECIFIED.);
#16=B_SPLINE_CURVE_WITH_KNOTS('',3,(#1450,#1451,#1452,#1453,#1454,#1455),
 .UNSPECIFIED.,.F.,.F.,(4,2,4),(0.826554837757979,0.93215601425398,1.07301693967911),
 .UNSPECIFIED.);
#17=B_SPLINE_CURVE_WITH_KNOTS('',3,(#1458,#1459,#1460,#1461,#1462,#1463),
 .UNSPECIFIED.,.F.,.F.,(4,2,4),(6.51453240437832,6.65539332980766,6.76099450630366),
 .UNSPECIFIED.);
#18=B_SPLINE_CURVE_WITH_KNOTS('',3,(#1465,#1466,#1467,#1468,#1469,#1470,
#1471,#1472,#1473,#1474),.UNSPECIFIED.,.F.,.F.,(4,2,2,2,4),(0.,0.419430676226876,
0.838861352453753,1.12283373359935,1.40680611474495),.UNSPECIFIED.);
#19=TOROIDAL_SURFACE('',#965,13.5,4.);
#20=FACE_BOUND('',#107,.T.);
#21=FACE_BOUND('',#112,.T.);
#22=FACE_BOUND('',#120,.T.);
#23=FACE_BOUND('',#126,.T.);
#24=FACE_BOUND('',#134,.T.);
#25=FACE_BOUND('',#135,.T.);
#26=FACE_BOUND('',#139,.T.);
#27=FACE_BOUND('',#148,.T.);
#28=PLANE('',#927);
#29=PLANE('',#931);
#30=PLANE('',#938);
#31=PLANE('',#942);
#32=PLANE('',#948);
#33=PLANE('',#952);
#34=PLANE('',#956);
#35=PLANE('',#960);
#36=PLANE('',#963);
#37=PLANE('',#964);
#38=PLANE('',#975);
#39=PLANE('',#987);
#40=PLANE('',#994);
#41=PLANE('',#997);
#42=PLANE('',#1000);
#43=PLANE('',#1001);
#44=PLANE('',#1008);
#45=PLANE('',#1009);
#46=PLANE('',#1011);
#47=PLANE('',#1016);
#48=PLANE('',#1018);
#49=FACE_OUTER_BOUND('',#95,.T.);
#50=FACE_OUTER_BOUND('',#96,.T.);
#51=FACE_OUTER_BOUND('',#97,.T.);
#52=FACE_OUTER_BOUND('',#98,.T.);
#53=FACE_OUTER_BOUND('',#99,.T.);
#54=FACE_OUTER_BOUND('',#100,.T.);
#55=FACE_OUTER_BOUND('',#101,.T.);
#56=FACE_OUTER_BOUND('',#102,.T.);
#57=FACE_OUTER_BOUND('',#103,.T.);
#58=FACE_OUTER_BOUND('',#104,.T.);
#59=FACE_OUTER_BOUND('',#105,.T.);
#60=FACE_OUTER_BOUND('',#106,.T.);
#61=FACE_OUTER_BOUND('',#108,.T.);
#62=FACE_OUTER_BOUND('',#109,.T.);
#63=FACE_OUTER_BOUND('',#110,.T.);
#64=FACE_OUTER_BOUND('',#111,.T.);
#65=FACE_OUTER_BOUND('',#113,.T.);
#66=FACE_OUTER_BOUND('',#114,.T.);
#67=FACE_OUTER_BOUND('',#115,.T.);
#68=FACE_OUTER_BOUND('',#116,.T.);
#69=FACE_OUTER_BOUND('',#117,.T.);
#70=FACE_OUTER_BOUND('',#118,.T.);
#71=FACE_OUTER_BOUND('',#119,.T.);
#72=FACE_OUTER_BOUND('',#121,.T.);
#73=FACE_OUTER_BOUND('',#122,.T.);
#74=FACE_OUTER_BOUND('',#123,.T.);
#75=FACE_OUTER_BOUND('',#124,.T.);
#76=FACE_OUTER_BOUND('',#125,.T.);
#77=FACE_OUTER_BOUND('',#127,.T.);
#78=FACE_OUTER_BOUND('',#128,.T.);
#79=FACE_OUTER_BOUND('',#129,.T.);
#80=FACE_OUTER_BOUND('',#130,.T.);
#81=FACE_OUTER_BOUND('',#131,.T.);
#82=FACE_OUTER_BOUND('',#132,.T.);
#83=FACE_OUTER_BOUND('',#133,.T.);
#84=FACE_OUTER_BOUND('',#136,.T.);
#85=FACE_OUTER_BOUND('',#137,.T.);
#86=FACE_OUTER_BOUND('',#138,.T.);
#87=FACE_OUTER_BOUND('',#140,.T.);
#88=FACE_OUTER_BOUND('',#141,.T.);
#89=FACE_OUTER_BOUND('',#142,.T.);
#90=FACE_OUTER_BOUND('',#143,.T.);
#91=FACE_OUTER_BOUND('',#144,.T.);
#92=FACE_OUTER_BOUND('',#145,.T.);
#93=FACE_OUTER_BOUND('',#146,.T.);
#94=FACE_OUTER_BOUND('',#147,.T.);
#95=EDGE_LOOP('',(#576,#577,#578,#579));
#96=EDGE_LOOP('',(#580,#581,#582,#583,#584,#585,#586,#587));
#97=EDGE_LOOP('',(#588,#589,#590,#591,#592,#593,#594,#595,#596,#597,#598,
#599,#600,#601,#602,#603,#604,#605));
#98=EDGE_LOOP('',(#606,#607,#608,#609));
#99=EDGE_LOOP('',(#610,#611,#612,#613));
#100=EDGE_LOOP('',(#614,#615,#616,#617));
#101=EDGE_LOOP('',(#618,#619,#620,#621));
#102=EDGE_LOOP('',(#622,#623,#624,#625));
#103=EDGE_LOOP('',(#626,#627,#628,#629));
#104=EDGE_LOOP('',(#630,#631,#632,#633,#634,#635,#636,#637));
#105=EDGE_LOOP('',(#638,#639,#640,#641));
#106=EDGE_LOOP('',(#642,#643,#644,#645,#646,#647,#648,#649,#650,#651));
#107=EDGE_LOOP('',(#652));
#108=EDGE_LOOP('',(#653,#654,#655,#656));
#109=EDGE_LOOP('',(#657,#658,#659,#660,#661,#662,#663,#664));
#110=EDGE_LOOP('',(#665,#666,#667,#668));
#111=EDGE_LOOP('',(#669,#670,#671,#672,#673,#674,#675,#676,#677));
#112=EDGE_LOOP('',(#678));
#113=EDGE_LOOP('',(#679,#680,#681,#682));
#114=EDGE_LOOP('',(#683,#684,#685,#686));
#115=EDGE_LOOP('',(#687,#688,#689,#690,#691));
#116=EDGE_LOOP('',(#692,#693,#694,#695,#696));
#117=EDGE_LOOP('',(#697,#698,#699,#700,#701));
#118=EDGE_LOOP('',(#702,#703,#704,#705,#706));
#119=EDGE_LOOP('',(#707,#708,#709,#710,#711));
#120=EDGE_LOOP('',(#712));
#121=EDGE_LOOP('',(#713,#714,#715,#716,#717));
#122=EDGE_LOOP('',(#718,#719,#720,#721));
#123=EDGE_LOOP('',(#722,#723,#724,#725,#726));
#124=EDGE_LOOP('',(#727,#728,#729,#730));
#125=EDGE_LOOP('',(#731,#732,#733,#734,#735,#736,#737));
#126=EDGE_LOOP('',(#738));
#127=EDGE_LOOP('',(#739,#740,#741,#742));
#128=EDGE_LOOP('',(#743,#744,#745,#746));
#129=EDGE_LOOP('',(#747,#748,#749,#750));
#130=EDGE_LOOP('',(#751,#752,#753,#754));
#131=EDGE_LOOP('',(#755,#756,#757,#758));
#132=EDGE_LOOP('',(#759,#760,#761,#762,#763,#764));
#133=EDGE_LOOP('',(#765,#766,#767,#768,#769,#770,#771,#772,#773,#774,#775,
#776));
#134=EDGE_LOOP('',(#777));
#135=EDGE_LOOP('',(#778));
#136=EDGE_LOOP('',(#779,#780,#781,#782));
#137=EDGE_LOOP('',(#783,#784,#785,#786));
#138=EDGE_LOOP('',(#787,#788,#789,#790,#791,#792,#793,#794,#795));
#139=EDGE_LOOP('',(#796));
#140=EDGE_LOOP('',(#797,#798,#799,#800));
#141=EDGE_LOOP('',(#801,#802,#803,#804,#805));
#142=EDGE_LOOP('',(#806,#807,#808,#809,#810));
#143=EDGE_LOOP('',(#811,#812,#813,#814));
#144=EDGE_LOOP('',(#815,#816,#817,#818));
#145=EDGE_LOOP('',(#819,#820,#821,#822,#823,#824));
#146=EDGE_LOOP('',(#825,#826,#827,#828));
#147=EDGE_LOOP('',(#829,#830,#831,#832,#833,#834,#835,#836,#837,#838));
#148=EDGE_LOOP('',(#839));
#149=LINE('',#1296,#228);
#150=LINE('',#1299,#229);
#151=LINE('',#1302,#230);
#152=LINE('',#1306,#231);
#153=LINE('',#1310,#232);
#154=LINE('',#1313,#233);
#155=LINE('',#1316,#234);
#156=LINE('',#1322,#235);
#157=LINE('',#1324,#236);
#158=LINE('',#1326,#237);
#159=LINE('',#1328,#238);
#160=LINE('',#1330,#239);
#161=LINE('',#1336,#240);
#162=LINE('',#1338,#241);
#163=LINE('',#1340,#242);
#164=LINE('',#1342,#243);
#165=LINE('',#1344,#244);
#166=LINE('',#1345,#245);
#167=LINE('',#1349,#246);
#168=LINE('',#1352,#247);
#169=LINE('',#1353,#248);
#170=LINE('',#1359,#249);
#171=LINE('',#1362,#250);
#172=LINE('',#1364,#251);
#173=LINE('',#1365,#252);
#174=LINE('',#1371,#253);
#175=LINE('',#1375,#254);
#176=LINE('',#1379,#255);
#177=LINE('',#1384,#256);
#178=LINE('',#1385,#257);
#179=LINE('',#1388,#258);
#180=LINE('',#1390,#259);
#181=LINE('',#1392,#260);
#182=LINE('',#1394,#261);
#183=LINE('',#1396,#262);
#184=LINE('',#1397,#263);
#185=LINE('',#1404,#264);
#186=LINE('',#1409,#265);
#187=LINE('',#1411,#266);
#188=LINE('',#1413,#267);
#189=LINE('',#1415,#268);
#190=LINE('',#1417,#269);
#191=LINE('',#1423,#270);
#192=LINE('',#1432,#271);
#193=LINE('',#1439,#272);
#194=LINE('',#1476,#273);
#195=LINE('',#1482,#274);
#196=LINE('',#1485,#275);
#197=LINE('',#1490,#276);
#198=LINE('',#1493,#277);
#199=LINE('',#1496,#278);
#200=LINE('',#1500,#279);
#201=LINE('',#1503,#280);
#202=LINE('',#1508,#281);
#203=LINE('',#1512,#282);
#204=LINE('',#1516,#283);
#205=LINE('',#1522,#284);
#206=LINE('',#1525,#285);
#207=LINE('',#1528,#286);
#208=LINE('',#1529,#287);
#209=LINE('',#1532,#288);
#210=LINE('',#1535,#289);
#211=LINE('',#1538,#290);
#212=LINE('',#1539,#291);
#213=LINE('',#1542,#292);
#214=LINE('',#1546,#293);
#215=LINE('',#1547,#294);
#216=LINE('',#1550,#295);
#217=LINE('',#1551,#296);
#218=LINE('',#1555,#297);
#219=LINE('',#1563,#298);
#220=LINE('',#1566,#299);
#221=LINE('',#1567,#300);
#222=LINE('',#1569,#301);
#223=LINE('',#1573,#302);
#224=LINE('',#1577,#303);
#225=LINE('',#1579,#304);
#226=LINE('',#1581,#305);
#227=LINE('',#1583,#306);
#228=VECTOR('',#1025,10.);
#229=VECTOR('',#1028,10.);
#230=VECTOR('',#1031,10.);
#231=VECTOR('',#1034,10.);
#232=VECTOR('',#1037,10.);
#233=VECTOR('',#1040,10.);
#234=VECTOR('',#1043,10.);
#235=VECTOR('',#1048,10.);
#236=VECTOR('',#1049,10.);
#237=VECTOR('',#1050,10.);
#238=VECTOR('',#1051,10.);
#239=VECTOR('',#1052,10.);
#240=VECTOR('',#1057,10.);
#241=VECTOR('',#1058,10.);
#242=VECTOR('',#1059,10.);
#243=VECTOR('',#1060,10.);
#244=VECTOR('',#1061,10.);
#245=VECTOR('',#1062,10.);
#246=VECTOR('',#1067,10.);
#247=VECTOR('',#1070,10.);
#248=VECTOR('',#1071,10.);
#249=VECTOR('',#1078,10.);
#250=VECTOR('',#1081,10.);
#251=VECTOR('',#1082,10.);
#252=VECTOR('',#1083,10.);
#253=VECTOR('',#1090,10.);
#254=VECTOR('',#1095,10.);
#255=VECTOR('',#1100,10.);
#256=VECTOR('',#1105,10.);
#257=VECTOR('',#1106,10.);
#258=VECTOR('',#1109,10.);
#259=VECTOR('',#1110,10.);
#260=VECTOR('',#1111,10.);
#261=VECTOR('',#1112,10.);
#262=VECTOR('',#1113,10.);
#263=VECTOR('',#1114,10.);
#264=VECTOR('',#1123,10.);
#265=VECTOR('',#1130,10.);
#266=VECTOR('',#1133,10.);
#267=VECTOR('',#1134,10.);
#268=VECTOR('',#1135,10.);
#269=VECTOR('',#1136,10.);
#270=VECTOR('',#1145,10.);
#271=VECTOR('',#1156,9.5);
#272=VECTOR('',#1163,10.);
#273=VECTOR('',#1166,10.);
#274=VECTOR('',#1173,10.);
#275=VECTOR('',#1176,10.);
#276=VECTOR('',#1181,10.);
#277=VECTOR('',#1184,10.);
#278=VECTOR('',#1187,10.);
#279=VECTOR('',#1192,10.);
#280=VECTOR('',#1195,10.);
#281=VECTOR('',#1202,10.);
#282=VECTOR('',#1205,10.);
#283=VECTOR('',#1208,10.);
#284=VECTOR('',#1215,10.);
#285=VECTOR('',#1218,10.);
#286=VECTOR('',#1221,10.);
#287=VECTOR('',#1222,10.);
#288=VECTOR('',#1225,10.);
#289=VECTOR('',#1228,10.);
#290=VECTOR('',#1231,10.);
#291=VECTOR('',#1232,10.);
#292=VECTOR('',#1235,10.);
#293=VECTOR('',#1240,10.);
#294=VECTOR('',#1241,10.);
#295=VECTOR('',#1244,10.);
#296=VECTOR('',#1245,10.);
#297=VECTOR('',#1250,10.);
#298=VECTOR('',#1259,10.);
#299=VECTOR('',#1262,10.);
#300=VECTOR('',#1263,10.);
#301=VECTOR('',#1266,10.);
#302=VECTOR('',#1271,10.);
#303=VECTOR('',#1278,4.);
#304=VECTOR('',#1281,4.);
#305=VECTOR('',#1284,10.);
#306=VECTOR('',#1287,4.);
#307=CIRCLE('',#925,3.);
#308=CIRCLE('',#926,3.);
#309=CIRCLE('',#928,3.);
#310=CIRCLE('',#929,5.);
#311=CIRCLE('',#930,5.);
#312=CIRCLE('',#932,10.);
#313=CIRCLE('',#933,7.);
#314=CIRCLE('',#934,7.);
#315=CIRCLE('',#935,10.);
#316=CIRCLE('',#937,3.);
#317=CIRCLE('',#940,3.);
#318=CIRCLE('',#941,3.);
#319=CIRCLE('',#944,3.);
#320=CIRCLE('',#945,3.);
#321=CIRCLE('',#947,5.);
#322=CIRCLE('',#949,5.);
#323=CIRCLE('',#951,5.);
#324=CIRCLE('',#953,13.5);
#325=CIRCLE('',#955,5.);
#326=CIRCLE('',#957,5.);
#327=CIRCLE('',#959,5.);
#328=CIRCLE('',#961,5.);
#329=CIRCLE('',#962,4.);
#330=CIRCLE('',#966,4.);
#331=CIRCLE('',#967,9.5);
#332=CIRCLE('',#968,9.5);
#333=CIRCLE('',#970,9.5);
#334=CIRCLE('',#972,7.);
#335=CIRCLE('',#974,7.);
#336=CIRCLE('',#976,10.);
#337=CIRCLE('',#977,7.);
#338=CIRCLE('',#978,4.);
#339=CIRCLE('',#980,7.);
#340=CIRCLE('',#982,10.);
#341=CIRCLE('',#984,7.);
#342=CIRCLE('',#986,10.);
#343=CIRCLE('',#988,7.);
#344=CIRCLE('',#989,7.);
#345=CIRCLE('',#990,10.);
#346=CIRCLE('',#991,4.);
#347=CIRCLE('',#993,7.);
#348=CIRCLE('',#996,7.);
#349=CIRCLE('',#999,7.);
#350=CIRCLE('',#1002,10.);
#351=CIRCLE('',#1003,10.);
#352=CIRCLE('',#1004,4.);
#353=CIRCLE('',#1005,4.);
#354=CIRCLE('',#1007,5.);
#355=CIRCLE('',#1010,4.);
#356=VERTEX_POINT('',#1292);
#357=VERTEX_POINT('',#1293);
#358=VERTEX_POINT('',#1295);
#359=VERTEX_POINT('',#1297);
#360=VERTEX_POINT('',#1301);
#361=VERTEX_POINT('',#1303);
#362=VERTEX_POINT('',#1305);
#363=VERTEX_POINT('',#1307);
#364=VERTEX_POINT('',#1309);
#365=VERTEX_POINT('',#1311);
#366=VERTEX_POINT('',#1315);
#367=VERTEX_POINT('',#1317);
#368=VERTEX_POINT('',#1319);
#369=VERTEX_POINT('',#1321);
#370=VERTEX_POINT('',#1323);
#371=VERTEX_POINT('',#1325);
#372=VERTEX_POINT('',#1327);
#373=VERTEX_POINT('',#1329);
#374=VERTEX_POINT('',#1331);
#375=VERTEX_POINT('',#1333);
#376=VERTEX_POINT('',#1335);
#377=VERTEX_POINT('',#1337);
#378=VERTEX_POINT('',#1339);
#379=VERTEX_POINT('',#1341);
#380=VERTEX_POINT('',#1343);
#381=VERTEX_POINT('',#1347);
#382=VERTEX_POINT('',#1351);
#383=VERTEX_POINT('',#1355);
#384=VERTEX_POINT('',#1357);
#385=VERTEX_POINT('',#1361);
#386=VERTEX_POINT('',#1363);
#387=VERTEX_POINT('',#1367);
#388=VERTEX_POINT('',#1369);
#389=VERTEX_POINT('',#1373);
#390=VERTEX_POINT('',#1377);
#391=VERTEX_POINT('',#1381);
#392=VERTEX_POINT('',#1382);
#393=VERTEX_POINT('',#1387);
#394=VERTEX_POINT('',#1389);
#395=VERTEX_POINT('',#1391);
#396=VERTEX_POINT('',#1393);
#397=VERTEX_POINT('',#1395);
#398=VERTEX_POINT('',#1398);
#399=VERTEX_POINT('',#1403);
#400=VERTEX_POINT('',#1407);
#401=VERTEX_POINT('',#1412);
#402=VERTEX_POINT('',#1414);
#403=VERTEX_POINT('',#1416);
#404=VERTEX_POINT('',#1419);
#405=VERTEX_POINT('',#1425);
#406=VERTEX_POINT('',#1427);
#407=VERTEX_POINT('',#1431);
#408=VERTEX_POINT('',#1435);
#409=VERTEX_POINT('',#1436);
#410=VERTEX_POINT('',#1438);
#411=VERTEX_POINT('',#1457);
#412=VERTEX_POINT('',#1464);
#413=VERTEX_POINT('',#1475);
#414=VERTEX_POINT('',#1479);
#415=VERTEX_POINT('',#1481);
#416=VERTEX_POINT('',#1483);
#417=VERTEX_POINT('',#1486);
#418=VERTEX_POINT('',#1489);
#419=VERTEX_POINT('',#1491);
#420=VERTEX_POINT('',#1495);
#421=VERTEX_POINT('',#1499);
#422=VERTEX_POINT('',#1501);
#423=VERTEX_POINT('',#1507);
#424=VERTEX_POINT('',#1509);
#425=VERTEX_POINT('',#1511);
#426=VERTEX_POINT('',#1513);
#427=VERTEX_POINT('',#1515);
#428=VERTEX_POINT('',#1518);
#429=VERTEX_POINT('',#1521);
#430=VERTEX_POINT('',#1523);
#431=VERTEX_POINT('',#1527);
#432=VERTEX_POINT('',#1531);
#433=VERTEX_POINT('',#1533);
#434=VERTEX_POINT('',#1537);
#435=VERTEX_POINT('',#1541);
#436=VERTEX_POINT('',#1545);
#437=VERTEX_POINT('',#1549);
#438=VERTEX_POINT('',#1553);
#439=VERTEX_POINT('',#1556);
#440=VERTEX_POINT('',#1558);
#441=VERTEX_POINT('',#1561);
#442=VERTEX_POINT('',#1565);
#443=VERTEX_POINT('',#1570);
#444=EDGE_CURVE('',#356,#357,#307,.T.);
#445=EDGE_CURVE('',#356,#358,#149,.T.);
#446=EDGE_CURVE('',#358,#359,#308,.T.);
#447=EDGE_CURVE('',#359,#357,#150,.T.);
#448=EDGE_CURVE('',#360,#357,#151,.T.);
#449=EDGE_CURVE('',#361,#360,#309,.T.);
#450=EDGE_CURVE('',#361,#362,#152,.T.);
#451=EDGE_CURVE('',#363,#362,#310,.T.);
#452=EDGE_CURVE('',#364,#363,#153,.T.);
#453=EDGE_CURVE('',#365,#364,#311,.F.);
#454=EDGE_CURVE('',#356,#365,#154,.T.);
#455=EDGE_CURVE('',#366,#359,#155,.T.);
#456=EDGE_CURVE('',#367,#366,#312,.T.);
#457=EDGE_CURVE('',#368,#367,#313,.T.);
#458=EDGE_CURVE('',#369,#368,#156,.T.);
#459=EDGE_CURVE('',#369,#370,#157,.T.);
#460=EDGE_CURVE('',#371,#370,#158,.T.);
#461=EDGE_CURVE('',#372,#371,#159,.T.);
#462=EDGE_CURVE('',#373,#372,#160,.T.);
#463=EDGE_CURVE('',#374,#373,#314,.T.);
#464=EDGE_CURVE('',#375,#374,#315,.T.);
#465=EDGE_CURVE('',#376,#375,#161,.T.);
#466=EDGE_CURVE('',#377,#376,#162,.T.);
#467=EDGE_CURVE('',#377,#378,#163,.T.);
#468=EDGE_CURVE('',#379,#378,#164,.T.);
#469=EDGE_CURVE('',#379,#380,#165,.T.);
#470=EDGE_CURVE('',#360,#380,#166,.T.);
#471=EDGE_CURVE('',#380,#381,#316,.T.);
#472=EDGE_CURVE('',#381,#361,#167,.T.);
#473=EDGE_CURVE('',#382,#381,#168,.T.);
#474=EDGE_CURVE('',#362,#382,#169,.T.);
#475=EDGE_CURVE('',#379,#383,#317,.T.);
#476=EDGE_CURVE('',#378,#384,#318,.T.);
#477=EDGE_CURVE('',#384,#383,#170,.T.);
#478=EDGE_CURVE('',#385,#384,#171,.T.);
#479=EDGE_CURVE('',#386,#385,#172,.T.);
#480=EDGE_CURVE('',#386,#383,#173,.T.);
#481=EDGE_CURVE('',#377,#387,#319,.T.);
#482=EDGE_CURVE('',#376,#388,#320,.T.);
#483=EDGE_CURVE('',#388,#387,#174,.T.);
#484=EDGE_CURVE('',#382,#389,#321,.T.);
#485=EDGE_CURVE('',#389,#363,#175,.T.);
#486=EDGE_CURVE('',#390,#386,#322,.F.);
#487=EDGE_CURVE('',#390,#389,#176,.T.);
#488=EDGE_CURVE('',#391,#392,#323,.T.);
#489=EDGE_CURVE('',#392,#365,#177,.T.);
#490=EDGE_CURVE('',#364,#391,#178,.T.);
#491=EDGE_CURVE('',#393,#390,#179,.T.);
#492=EDGE_CURVE('',#393,#394,#180,.T.);
#493=EDGE_CURVE('',#395,#394,#181,.T.);
#494=EDGE_CURVE('',#395,#396,#182,.T.);
#495=EDGE_CURVE('',#397,#396,#183,.T.);
#496=EDGE_CURVE('',#397,#391,#184,.T.);
#497=EDGE_CURVE('',#398,#398,#324,.T.);
#498=EDGE_CURVE('',#385,#393,#325,.T.);
#499=EDGE_CURVE('',#399,#387,#185,.T.);
#500=EDGE_CURVE('',#394,#399,#326,.F.);
#501=EDGE_CURVE('',#400,#395,#327,.T.);
#502=EDGE_CURVE('',#399,#400,#186,.T.);
#503=EDGE_CURVE('',#400,#388,#187,.T.);
#504=EDGE_CURVE('',#401,#375,#188,.T.);
#505=EDGE_CURVE('',#402,#401,#189,.T.);
#506=EDGE_CURVE('',#402,#403,#190,.T.);
#507=EDGE_CURVE('',#396,#403,#328,.T.);
#508=EDGE_CURVE('',#404,#404,#329,.T.);
#509=EDGE_CURVE('',#358,#392,#191,.T.);
#510=EDGE_CURVE('',#398,#405,#330,.T.);
#511=EDGE_CURVE('',#405,#406,#331,.T.);
#512=EDGE_CURVE('',#406,#405,#332,.T.);
#513=EDGE_CURVE('',#406,#407,#192,.T.);
#514=EDGE_CURVE('',#407,#407,#333,.T.);
#515=EDGE_CURVE('',#408,#409,#334,.F.);
#516=EDGE_CURVE('',#408,#410,#193,.T.);
#517=EDGE_CURVE('',#410,#369,#15,.T.);
#518=EDGE_CURVE('',#409,#368,#16,.F.);
#519=EDGE_CURVE('',#373,#411,#17,.F.);
#520=EDGE_CURVE('',#372,#412,#18,.T.);
#521=EDGE_CURVE('',#412,#413,#194,.T.);
#522=EDGE_CURVE('',#413,#411,#335,.T.);
#523=EDGE_CURVE('',#414,#412,#336,.T.);
#524=EDGE_CURVE('',#415,#414,#195,.T.);
#525=EDGE_CURVE('',#416,#415,#337,.T.);
#526=EDGE_CURVE('',#413,#416,#196,.T.);
#527=EDGE_CURVE('',#417,#417,#338,.T.);
#528=EDGE_CURVE('',#367,#418,#197,.T.);
#529=EDGE_CURVE('',#418,#419,#339,.T.);
#530=EDGE_CURVE('',#409,#419,#198,.F.);
#531=EDGE_CURVE('',#366,#420,#199,.T.);
#532=EDGE_CURVE('',#420,#418,#340,.T.);
#533=EDGE_CURVE('',#411,#421,#200,.F.);
#534=EDGE_CURVE('',#421,#422,#341,.T.);
#535=EDGE_CURVE('',#422,#374,#201,.T.);
#536=EDGE_CURVE('',#422,#401,#342,.T.);
#537=EDGE_CURVE('',#423,#408,#202,.T.);
#538=EDGE_CURVE('',#424,#423,#343,.T.);
#539=EDGE_CURVE('',#425,#424,#203,.T.);
#540=EDGE_CURVE('',#426,#425,#344,.T.);
#541=EDGE_CURVE('',#427,#426,#204,.T.);
#542=EDGE_CURVE('',#410,#427,#345,.T.);
#543=EDGE_CURVE('',#428,#428,#346,.T.);
#544=EDGE_CURVE('',#415,#429,#205,.T.);
#545=EDGE_CURVE('',#430,#429,#347,.T.);
#546=EDGE_CURVE('',#416,#430,#206,.T.);
#547=EDGE_CURVE('',#414,#431,#207,.T.);
#548=EDGE_CURVE('',#429,#431,#208,.T.);
#549=EDGE_CURVE('',#425,#432,#209,.T.);
#550=EDGE_CURVE('',#433,#432,#348,.T.);
#551=EDGE_CURVE('',#426,#433,#210,.T.);
#552=EDGE_CURVE('',#424,#434,#211,.T.);
#553=EDGE_CURVE('',#432,#434,#212,.T.);
#554=EDGE_CURVE('',#423,#435,#213,.T.);
#555=EDGE_CURVE('',#434,#435,#349,.T.);
#556=EDGE_CURVE('',#436,#419,#214,.T.);
#557=EDGE_CURVE('',#435,#436,#215,.T.);
#558=EDGE_CURVE('',#436,#437,#216,.T.);
#559=EDGE_CURVE('',#437,#430,#217,.T.);
#560=EDGE_CURVE('',#431,#371,#350,.T.);
#561=EDGE_CURVE('',#370,#438,#351,.T.);
#562=EDGE_CURVE('',#438,#433,#218,.T.);
#563=EDGE_CURVE('',#439,#439,#352,.T.);
#564=EDGE_CURVE('',#440,#440,#353,.T.);
#565=EDGE_CURVE('',#441,#397,#354,.T.);
#566=EDGE_CURVE('',#403,#441,#219,.T.);
#567=EDGE_CURVE('',#442,#402,#220,.T.);
#568=EDGE_CURVE('',#441,#442,#221,.T.);
#569=EDGE_CURVE('',#420,#442,#222,.T.);
#570=EDGE_CURVE('',#443,#443,#355,.T.);
#571=EDGE_CURVE('',#427,#438,#223,.T.);
#572=EDGE_CURVE('',#428,#440,#224,.T.);
#573=EDGE_CURVE('',#417,#439,#225,.T.);
#574=EDGE_CURVE('',#421,#437,#226,.T.);
#575=EDGE_CURVE('',#404,#443,#227,.T.);
#576=ORIENTED_EDGE('',*,*,#444,.F.);
#577=ORIENTED_EDGE('',*,*,#445,.T.);
#578=ORIENTED_EDGE('',*,*,#446,.T.);
#579=ORIENTED_EDGE('',*,*,#447,.T.);
#580=ORIENTED_EDGE('',*,*,#444,.T.);
#581=ORIENTED_EDGE('',*,*,#448,.F.);
#582=ORIENTED_EDGE('',*,*,#449,.F.);
#583=ORIENTED_EDGE('',*,*,#450,.T.);
#584=ORIENTED_EDGE('',*,*,#451,.F.);
#585=ORIENTED_EDGE('',*,*,#452,.F.);
#586=ORIENTED_EDGE('',*,*,#453,.F.);
#587=ORIENTED_EDGE('',*,*,#454,.F.);
#588=ORIENTED_EDGE('',*,*,#447,.F.);
#589=ORIENTED_EDGE('',*,*,#455,.F.);
#590=ORIENTED_EDGE('',*,*,#456,.F.);
#591=ORIENTED_EDGE('',*,*,#457,.F.);
#592=ORIENTED_EDGE('',*,*,#458,.F.);
#593=ORIENTED_EDGE('',*,*,#459,.T.);
#594=ORIENTED_EDGE('',*,*,#460,.F.);
#595=ORIENTED_EDGE('',*,*,#461,.F.);
#596=ORIENTED_EDGE('',*,*,#462,.F.);
#597=ORIENTED_EDGE('',*,*,#463,.F.);
#598=ORIENTED_EDGE('',*,*,#464,.F.);
#599=ORIENTED_EDGE('',*,*,#465,.F.);
#600=ORIENTED_EDGE('',*,*,#466,.F.);
#601=ORIENTED_EDGE('',*,*,#467,.T.);
#602=ORIENTED_EDGE('',*,*,#468,.F.);
#603=ORIENTED_EDGE('',*,*,#469,.T.);
#604=ORIENTED_EDGE('',*,*,#470,.F.);
#605=ORIENTED_EDGE('',*,*,#448,.T.);
#606=ORIENTED_EDGE('',*,*,#471,.T.);
#607=ORIENTED_EDGE('',*,*,#472,.T.);
#608=ORIENTED_EDGE('',*,*,#449,.T.);
#609=ORIENTED_EDGE('',*,*,#470,.T.);
#610=ORIENTED_EDGE('',*,*,#472,.F.);
#611=ORIENTED_EDGE('',*,*,#473,.F.);
#612=ORIENTED_EDGE('',*,*,#474,.F.);
#613=ORIENTED_EDGE('',*,*,#450,.F.);
#614=ORIENTED_EDGE('',*,*,#475,.F.);
#615=ORIENTED_EDGE('',*,*,#468,.T.);
#616=ORIENTED_EDGE('',*,*,#476,.T.);
#617=ORIENTED_EDGE('',*,*,#477,.T.);
#618=ORIENTED_EDGE('',*,*,#477,.F.);
#619=ORIENTED_EDGE('',*,*,#478,.F.);
#620=ORIENTED_EDGE('',*,*,#479,.F.);
#621=ORIENTED_EDGE('',*,*,#480,.T.);
#622=ORIENTED_EDGE('',*,*,#481,.F.);
#623=ORIENTED_EDGE('',*,*,#466,.T.);
#624=ORIENTED_EDGE('',*,*,#482,.T.);
#625=ORIENTED_EDGE('',*,*,#483,.T.);
#626=ORIENTED_EDGE('',*,*,#451,.T.);
#627=ORIENTED_EDGE('',*,*,#474,.T.);
#628=ORIENTED_EDGE('',*,*,#484,.T.);
#629=ORIENTED_EDGE('',*,*,#485,.T.);
#630=ORIENTED_EDGE('',*,*,#475,.T.);
#631=ORIENTED_EDGE('',*,*,#480,.F.);
#632=ORIENTED_EDGE('',*,*,#486,.F.);
#633=ORIENTED_EDGE('',*,*,#487,.T.);
#634=ORIENTED_EDGE('',*,*,#484,.F.);
#635=ORIENTED_EDGE('',*,*,#473,.T.);
#636=ORIENTED_EDGE('',*,*,#471,.F.);
#637=ORIENTED_EDGE('',*,*,#469,.F.);
#638=ORIENTED_EDGE('',*,*,#488,.T.);
#639=ORIENTED_EDGE('',*,*,#489,.T.);
#640=ORIENTED_EDGE('',*,*,#453,.T.);
#641=ORIENTED_EDGE('',*,*,#490,.T.);
#642=ORIENTED_EDGE('',*,*,#485,.F.);
#643=ORIENTED_EDGE('',*,*,#487,.F.);
#644=ORIENTED_EDGE('',*,*,#491,.F.);
#645=ORIENTED_EDGE('',*,*,#492,.T.);
#646=ORIENTED_EDGE('',*,*,#493,.F.);
#647=ORIENTED_EDGE('',*,*,#494,.T.);
#648=ORIENTED_EDGE('',*,*,#495,.F.);
#649=ORIENTED_EDGE('',*,*,#496,.T.);
#650=ORIENTED_EDGE('',*,*,#490,.F.);
#651=ORIENTED_EDGE('',*,*,#452,.T.);
#652=ORIENTED_EDGE('',*,*,#497,.F.);
#653=ORIENTED_EDGE('',*,*,#498,.T.);
#654=ORIENTED_EDGE('',*,*,#491,.T.);
#655=ORIENTED_EDGE('',*,*,#486,.T.);
#656=ORIENTED_EDGE('',*,*,#479,.T.);
#657=ORIENTED_EDGE('',*,*,#481,.T.);
#658=ORIENTED_EDGE('',*,*,#499,.F.);
#659=ORIENTED_EDGE('',*,*,#500,.F.);
#660=ORIENTED_EDGE('',*,*,#492,.F.);
#661=ORIENTED_EDGE('',*,*,#498,.F.);
#662=ORIENTED_EDGE('',*,*,#478,.T.);
#663=ORIENTED_EDGE('',*,*,#476,.F.);
#664=ORIENTED_EDGE('',*,*,#467,.F.);
#665=ORIENTED_EDGE('',*,*,#501,.T.);
#666=ORIENTED_EDGE('',*,*,#493,.T.);
#667=ORIENTED_EDGE('',*,*,#500,.T.);
#668=ORIENTED_EDGE('',*,*,#502,.T.);
#669=ORIENTED_EDGE('',*,*,#501,.F.);
#670=ORIENTED_EDGE('',*,*,#503,.T.);
#671=ORIENTED_EDGE('',*,*,#482,.F.);
#672=ORIENTED_EDGE('',*,*,#465,.T.);
#673=ORIENTED_EDGE('',*,*,#504,.F.);
#674=ORIENTED_EDGE('',*,*,#505,.F.);
#675=ORIENTED_EDGE('',*,*,#506,.T.);
#676=ORIENTED_EDGE('',*,*,#507,.F.);
#677=ORIENTED_EDGE('',*,*,#494,.F.);
#678=ORIENTED_EDGE('',*,*,#508,.T.);
#679=ORIENTED_EDGE('',*,*,#483,.F.);
#680=ORIENTED_EDGE('',*,*,#503,.F.);
#681=ORIENTED_EDGE('',*,*,#502,.F.);
#682=ORIENTED_EDGE('',*,*,#499,.T.);
#683=ORIENTED_EDGE('',*,*,#445,.F.);
#684=ORIENTED_EDGE('',*,*,#454,.T.);
#685=ORIENTED_EDGE('',*,*,#489,.F.);
#686=ORIENTED_EDGE('',*,*,#509,.F.);
#687=ORIENTED_EDGE('',*,*,#497,.T.);
#688=ORIENTED_EDGE('',*,*,#510,.T.);
#689=ORIENTED_EDGE('',*,*,#511,.T.);
#690=ORIENTED_EDGE('',*,*,#512,.T.);
#691=ORIENTED_EDGE('',*,*,#510,.F.);
#692=ORIENTED_EDGE('',*,*,#512,.F.);
#693=ORIENTED_EDGE('',*,*,#513,.T.);
#694=ORIENTED_EDGE('',*,*,#514,.F.);
#695=ORIENTED_EDGE('',*,*,#513,.F.);
#696=ORIENTED_EDGE('',*,*,#511,.F.);
#697=ORIENTED_EDGE('',*,*,#515,.F.);
#698=ORIENTED_EDGE('',*,*,#516,.T.);
#699=ORIENTED_EDGE('',*,*,#517,.T.);
#700=ORIENTED_EDGE('',*,*,#458,.T.);
#701=ORIENTED_EDGE('',*,*,#518,.F.);
#702=ORIENTED_EDGE('',*,*,#519,.F.);
#703=ORIENTED_EDGE('',*,*,#462,.T.);
#704=ORIENTED_EDGE('',*,*,#520,.T.);
#705=ORIENTED_EDGE('',*,*,#521,.T.);
#706=ORIENTED_EDGE('',*,*,#522,.T.);
#707=ORIENTED_EDGE('',*,*,#521,.F.);
#708=ORIENTED_EDGE('',*,*,#523,.F.);
#709=ORIENTED_EDGE('',*,*,#524,.F.);
#710=ORIENTED_EDGE('',*,*,#525,.F.);
#711=ORIENTED_EDGE('',*,*,#526,.F.);
#712=ORIENTED_EDGE('',*,*,#527,.F.);
#713=ORIENTED_EDGE('',*,*,#457,.T.);
#714=ORIENTED_EDGE('',*,*,#528,.T.);
#715=ORIENTED_EDGE('',*,*,#529,.T.);
#716=ORIENTED_EDGE('',*,*,#530,.F.);
#717=ORIENTED_EDGE('',*,*,#518,.T.);
#718=ORIENTED_EDGE('',*,*,#528,.F.);
#719=ORIENTED_EDGE('',*,*,#456,.T.);
#720=ORIENTED_EDGE('',*,*,#531,.T.);
#721=ORIENTED_EDGE('',*,*,#532,.T.);
#722=ORIENTED_EDGE('',*,*,#463,.T.);
#723=ORIENTED_EDGE('',*,*,#519,.T.);
#724=ORIENTED_EDGE('',*,*,#533,.T.);
#725=ORIENTED_EDGE('',*,*,#534,.T.);
#726=ORIENTED_EDGE('',*,*,#535,.T.);
#727=ORIENTED_EDGE('',*,*,#535,.F.);
#728=ORIENTED_EDGE('',*,*,#536,.T.);
#729=ORIENTED_EDGE('',*,*,#504,.T.);
#730=ORIENTED_EDGE('',*,*,#464,.T.);
#731=ORIENTED_EDGE('',*,*,#516,.F.);
#732=ORIENTED_EDGE('',*,*,#537,.F.);
#733=ORIENTED_EDGE('',*,*,#538,.F.);
#734=ORIENTED_EDGE('',*,*,#539,.F.);
#735=ORIENTED_EDGE('',*,*,#540,.F.);
#736=ORIENTED_EDGE('',*,*,#541,.F.);
#737=ORIENTED_EDGE('',*,*,#542,.F.);
#738=ORIENTED_EDGE('',*,*,#543,.F.);
#739=ORIENTED_EDGE('',*,*,#525,.T.);
#740=ORIENTED_EDGE('',*,*,#544,.T.);
#741=ORIENTED_EDGE('',*,*,#545,.F.);
#742=ORIENTED_EDGE('',*,*,#546,.F.);
#743=ORIENTED_EDGE('',*,*,#524,.T.);
#744=ORIENTED_EDGE('',*,*,#547,.T.);
#745=ORIENTED_EDGE('',*,*,#548,.F.);
#746=ORIENTED_EDGE('',*,*,#544,.F.);
#747=ORIENTED_EDGE('',*,*,#540,.T.);
#748=ORIENTED_EDGE('',*,*,#549,.T.);
#749=ORIENTED_EDGE('',*,*,#550,.F.);
#750=ORIENTED_EDGE('',*,*,#551,.F.);
#751=ORIENTED_EDGE('',*,*,#539,.T.);
#752=ORIENTED_EDGE('',*,*,#552,.T.);
#753=ORIENTED_EDGE('',*,*,#553,.F.);
#754=ORIENTED_EDGE('',*,*,#549,.F.);
#755=ORIENTED_EDGE('',*,*,#538,.T.);
#756=ORIENTED_EDGE('',*,*,#554,.T.);
#757=ORIENTED_EDGE('',*,*,#555,.F.);
#758=ORIENTED_EDGE('',*,*,#552,.F.);
#759=ORIENTED_EDGE('',*,*,#530,.T.);
#760=ORIENTED_EDGE('',*,*,#556,.F.);
#761=ORIENTED_EDGE('',*,*,#557,.F.);
#762=ORIENTED_EDGE('',*,*,#554,.F.);
#763=ORIENTED_EDGE('',*,*,#537,.T.);
#764=ORIENTED_EDGE('',*,*,#515,.T.);
#765=ORIENTED_EDGE('',*,*,#555,.T.);
#766=ORIENTED_EDGE('',*,*,#557,.T.);
#767=ORIENTED_EDGE('',*,*,#558,.T.);
#768=ORIENTED_EDGE('',*,*,#559,.T.);
#769=ORIENTED_EDGE('',*,*,#545,.T.);
#770=ORIENTED_EDGE('',*,*,#548,.T.);
#771=ORIENTED_EDGE('',*,*,#560,.T.);
#772=ORIENTED_EDGE('',*,*,#460,.T.);
#773=ORIENTED_EDGE('',*,*,#561,.T.);
#774=ORIENTED_EDGE('',*,*,#562,.T.);
#775=ORIENTED_EDGE('',*,*,#550,.T.);
#776=ORIENTED_EDGE('',*,*,#553,.T.);
#777=ORIENTED_EDGE('',*,*,#563,.T.);
#778=ORIENTED_EDGE('',*,*,#564,.T.);
#779=ORIENTED_EDGE('',*,*,#565,.T.);
#780=ORIENTED_EDGE('',*,*,#495,.T.);
#781=ORIENTED_EDGE('',*,*,#507,.T.);
#782=ORIENTED_EDGE('',*,*,#566,.T.);
#783=ORIENTED_EDGE('',*,*,#566,.F.);
#784=ORIENTED_EDGE('',*,*,#506,.F.);
#785=ORIENTED_EDGE('',*,*,#567,.F.);
#786=ORIENTED_EDGE('',*,*,#568,.F.);
#787=ORIENTED_EDGE('',*,*,#488,.F.);
#788=ORIENTED_EDGE('',*,*,#496,.F.);
#789=ORIENTED_EDGE('',*,*,#565,.F.);
#790=ORIENTED_EDGE('',*,*,#568,.T.);
#791=ORIENTED_EDGE('',*,*,#569,.F.);
#792=ORIENTED_EDGE('',*,*,#531,.F.);
#793=ORIENTED_EDGE('',*,*,#455,.T.);
#794=ORIENTED_EDGE('',*,*,#446,.F.);
#795=ORIENTED_EDGE('',*,*,#509,.T.);
#796=ORIENTED_EDGE('',*,*,#570,.T.);
#797=ORIENTED_EDGE('',*,*,#541,.T.);
#798=ORIENTED_EDGE('',*,*,#551,.T.);
#799=ORIENTED_EDGE('',*,*,#562,.F.);
#800=ORIENTED_EDGE('',*,*,#571,.F.);
#801=ORIENTED_EDGE('',*,*,#542,.T.);
#802=ORIENTED_EDGE('',*,*,#571,.T.);
#803=ORIENTED_EDGE('',*,*,#561,.F.);
#804=ORIENTED_EDGE('',*,*,#459,.F.);
#805=ORIENTED_EDGE('',*,*,#517,.F.);
#806=ORIENTED_EDGE('',*,*,#523,.T.);
#807=ORIENTED_EDGE('',*,*,#520,.F.);
#808=ORIENTED_EDGE('',*,*,#461,.T.);
#809=ORIENTED_EDGE('',*,*,#560,.F.);
#810=ORIENTED_EDGE('',*,*,#547,.F.);
#811=ORIENTED_EDGE('',*,*,#543,.T.);
#812=ORIENTED_EDGE('',*,*,#572,.T.);
#813=ORIENTED_EDGE('',*,*,#564,.F.);
#814=ORIENTED_EDGE('',*,*,#572,.F.);
#815=ORIENTED_EDGE('',*,*,#527,.T.);
#816=ORIENTED_EDGE('',*,*,#573,.T.);
#817=ORIENTED_EDGE('',*,*,#563,.F.);
#818=ORIENTED_EDGE('',*,*,#573,.F.);
#819=ORIENTED_EDGE('',*,*,#533,.F.);
#820=ORIENTED_EDGE('',*,*,#522,.F.);
#821=ORIENTED_EDGE('',*,*,#526,.T.);
#822=ORIENTED_EDGE('',*,*,#546,.T.);
#823=ORIENTED_EDGE('',*,*,#559,.F.);
#824=ORIENTED_EDGE('',*,*,#574,.F.);
#825=ORIENTED_EDGE('',*,*,#508,.F.);
#826=ORIENTED_EDGE('',*,*,#575,.T.);
#827=ORIENTED_EDGE('',*,*,#570,.F.);
#828=ORIENTED_EDGE('',*,*,#575,.F.);
#829=ORIENTED_EDGE('',*,*,#529,.F.);
#830=ORIENTED_EDGE('',*,*,#532,.F.);
#831=ORIENTED_EDGE('',*,*,#569,.T.);
#832=ORIENTED_EDGE('',*,*,#567,.T.);
#833=ORIENTED_EDGE('',*,*,#505,.T.);
#834=ORIENTED_EDGE('',*,*,#536,.F.);
#835=ORIENTED_EDGE('',*,*,#534,.F.);
#836=ORIENTED_EDGE('',*,*,#574,.T.);
#837=ORIENTED_EDGE('',*,*,#558,.F.);
#838=ORIENTED_EDGE('',*,*,#556,.T.);
#839=ORIENTED_EDGE('',*,*,#514,.T.);
#840=CYLINDRICAL_SURFACE('',#924,3.);
#841=CYLINDRICAL_SURFACE('',#936,3.);
#842=CYLINDRICAL_SURFACE('',#939,3.);
#843=CYLINDRICAL_SURFACE('',#943,3.);
#844=CYLINDRICAL_SURFACE('',#946,5.);
#845=CYLINDRICAL_SURFACE('',#950,5.);
#846=CYLINDRICAL_SURFACE('',#954,5.);
#847=CYLINDRICAL_SURFACE('',#958,5.);
#848=CYLINDRICAL_SURFACE('',#969,9.5);
#849=CYLINDRICAL_SURFACE('',#971,7.);
#850=CYLINDRICAL_SURFACE('',#973,7.);
#851=CYLINDRICAL_SURFACE('',#979,7.);
#852=CYLINDRICAL_SURFACE('',#981,10.);
#853=CYLINDRICAL_SURFACE('',#983,7.);
#854=CYLINDRICAL_SURFACE('',#985,10.);
#855=CYLINDRICAL_SURFACE('',#992,7.);
#856=CYLINDRICAL_SURFACE('',#995,7.);
#857=CYLINDRICAL_SURFACE('',#998,7.);
#858=CYLINDRICAL_SURFACE('',#1006,5.);
#859=CYLINDRICAL_SURFACE('',#1012,10.);
#860=CYLINDRICAL_SURFACE('',#1013,10.);
#861=CYLINDRICAL_SURFACE('',#1014,4.);
#862=CYLINDRICAL_SURFACE('',#1015,4.);
#863=CYLINDRICAL_SURFACE('',#1017,4.);
#864=ADVANCED_FACE('',(#49),#840,.F.);
#865=ADVANCED_FACE('',(#50),#28,.T.);
#866=ADVANCED_FACE('',(#51),#29,.F.);
#867=ADVANCED_FACE('',(#52),#841,.F.);
#868=ADVANCED_FACE('',(#53),#30,.F.);
#869=ADVANCED_FACE('',(#54),#842,.F.);
#870=ADVANCED_FACE('',(#55),#31,.F.);
#871=ADVANCED_FACE('',(#56),#843,.F.);
#872=ADVANCED_FACE('',(#57),#844,.T.);
#873=ADVANCED_FACE('',(#58),#32,.T.);
#874=ADVANCED_FACE('',(#59),#845,.T.);
#875=ADVANCED_FACE('',(#60,#20),#33,.F.);
#876=ADVANCED_FACE('',(#61),#846,.T.);
#877=ADVANCED_FACE('',(#62),#34,.T.);
#878=ADVANCED_FACE('',(#63),#847,.T.);
#879=ADVANCED_FACE('',(#64,#21),#35,.T.);
#880=ADVANCED_FACE('',(#65),#36,.F.);
#881=ADVANCED_FACE('',(#66),#37,.F.);
#882=ADVANCED_FACE('',(#67),#19,.T.);
#883=ADVANCED_FACE('',(#68),#848,.F.);
#884=ADVANCED_FACE('',(#69),#849,.F.);
#885=ADVANCED_FACE('',(#70),#850,.F.);
#886=ADVANCED_FACE('',(#71,#22),#38,.T.);
#887=ADVANCED_FACE('',(#72),#851,.T.);
#888=ADVANCED_FACE('',(#73),#852,.F.);
#889=ADVANCED_FACE('',(#74),#853,.T.);
#890=ADVANCED_FACE('',(#75),#854,.F.);
#891=ADVANCED_FACE('',(#76,#23),#39,.T.);
#892=ADVANCED_FACE('',(#77),#855,.T.);
#893=ADVANCED_FACE('',(#78),#40,.T.);
#894=ADVANCED_FACE('',(#79),#856,.T.);
#895=ADVANCED_FACE('',(#80),#41,.T.);
#896=ADVANCED_FACE('',(#81),#857,.T.);
#897=ADVANCED_FACE('',(#82),#42,.T.);
#898=ADVANCED_FACE('',(#83,#24,#25),#43,.T.);
#899=ADVANCED_FACE('',(#84),#858,.T.);
#900=ADVANCED_FACE('',(#85),#44,.F.);
#901=ADVANCED_FACE('',(#86,#26),#45,.T.);
#902=ADVANCED_FACE('',(#87),#46,.T.);
#903=ADVANCED_FACE('',(#88),#859,.F.);
#904=ADVANCED_FACE('',(#89),#860,.F.);
#905=ADVANCED_FACE('',(#90),#861,.F.);
#906=ADVANCED_FACE('',(#91),#862,.F.);
#907=ADVANCED_FACE('',(#92),#47,.T.);
#908=ADVANCED_FACE('',(#93),#863,.F.);
#909=ADVANCED_FACE('',(#94,#27),#48,.T.);
#910=CLOSED_SHELL('',(#864,#865,#866,#867,#868,#869,#870,#871,#872,#873,
#874,#875,#876,#877,#878,#879,#880,#881,#882,#883,#884,#885,#886,#887,#888,
#889,#890,#891,#892,#893,#894,#895,#896,#897,#898,#899,#900,#901,#902,#903,
#904,#905,#906,#907,#908,#909));
#911=DERIVED_UNIT_ELEMENT(#913,1.);
#912=DERIVED_UNIT_ELEMENT(#1590,-3.);
#913=(
MASS_UNIT()
NAMED_UNIT(*)
SI_UNIT(.KILO.,.GRAM.)
);
#914=DERIVED_UNIT((#911,#912));
#915=MEASURE_REPRESENTATION_ITEM('density measure',
POSITIVE_RATIO_MEASURE(7850.),#914);
#916=PROPERTY_DEFINITION_REPRESENTATION(#921,#918);
#917=PROPERTY_DEFINITION_REPRESENTATION(#922,#919);
#918=REPRESENTATION('material name',(#920),#1587);
#919=REPRESENTATION('density',(#915),#1587);
#920=DESCRIPTIVE_REPRESENTATION_ITEM('Steel','Steel');
#921=PROPERTY_DEFINITION('material property','material name',#1597);
#922=PROPERTY_DEFINITION('material property','density of part',#1597);
#923=AXIS2_PLACEMENT_3D('',#1290,#1019,#1020);
#924=AXIS2_PLACEMENT_3D('',#1291,#1021,#1022);
#925=AXIS2_PLACEMENT_3D('',#1294,#1023,#1024);
#926=AXIS2_PLACEMENT_3D('',#1298,#1026,#1027);
#927=AXIS2_PLACEMENT_3D('',#1300,#1029,#1030);
#928=AXIS2_PLACEMENT_3D('',#1304,#1032,#1033);
#929=AXIS2_PLACEMENT_3D('',#1308,#1035,#1036);
#930=AXIS2_PLACEMENT_3D('',#1312,#1038,#1039);
#931=AXIS2_PLACEMENT_3D('',#1314,#1041,#1042);
#932=AXIS2_PLACEMENT_3D('',#1318,#1044,#1045);
#933=AXIS2_PLACEMENT_3D('',#1320,#1046,#1047);
#934=AXIS2_PLACEMENT_3D('',#1332,#1053,#1054);
#935=AXIS2_PLACEMENT_3D('',#1334,#1055,#1056);
#936=AXIS2_PLACEMENT_3D('',#1346,#1063,#1064);
#937=AXIS2_PLACEMENT_3D('',#1348,#1065,#1066);
#938=AXIS2_PLACEMENT_3D('',#1350,#1068,#1069);
#939=AXIS2_PLACEMENT_3D('',#1354,#1072,#1073);
#940=AXIS2_PLACEMENT_3D('',#1356,#1074,#1075);
#941=AXIS2_PLACEMENT_3D('',#1358,#1076,#1077);
#942=AXIS2_PLACEMENT_3D('',#1360,#1079,#1080);
#943=AXIS2_PLACEMENT_3D('',#1366,#1084,#1085);
#944=AXIS2_PLACEMENT_3D('',#1368,#1086,#1087);
#945=AXIS2_PLACEMENT_3D('',#1370,#1088,#1089);
#946=AXIS2_PLACEMENT_3D('',#1372,#1091,#1092);
#947=AXIS2_PLACEMENT_3D('',#1374,#1093,#1094);
#948=AXIS2_PLACEMENT_3D('',#1376,#1096,#1097);
#949=AXIS2_PLACEMENT_3D('',#1378,#1098,#1099);
#950=AXIS2_PLACEMENT_3D('',#1380,#1101,#1102);
#951=AXIS2_PLACEMENT_3D('',#1383,#1103,#1104);
#952=AXIS2_PLACEMENT_3D('',#1386,#1107,#1108);
#953=AXIS2_PLACEMENT_3D('',#1399,#1115,#1116);
#954=AXIS2_PLACEMENT_3D('',#1400,#1117,#1118);
#955=AXIS2_PLACEMENT_3D('',#1401,#1119,#1120);
#956=AXIS2_PLACEMENT_3D('',#1402,#1121,#1122);
#957=AXIS2_PLACEMENT_3D('',#1405,#1124,#1125);
#958=AXIS2_PLACEMENT_3D('',#1406,#1126,#1127);
#959=AXIS2_PLACEMENT_3D('',#1408,#1128,#1129);
#960=AXIS2_PLACEMENT_3D('',#1410,#1131,#1132);
#961=AXIS2_PLACEMENT_3D('',#1418,#1137,#1138);
#962=AXIS2_PLACEMENT_3D('',#1420,#1139,#1140);
#963=AXIS2_PLACEMENT_3D('',#1421,#1141,#1142);
#964=AXIS2_PLACEMENT_3D('',#1422,#1143,#1144);
#965=AXIS2_PLACEMENT_3D('',#1424,#1146,#1147);
#966=AXIS2_PLACEMENT_3D('',#1426,#1148,#1149);
#967=AXIS2_PLACEMENT_3D('',#1428,#1150,#1151);
#968=AXIS2_PLACEMENT_3D('',#1429,#1152,#1153);
#969=AXIS2_PLACEMENT_3D('',#1430,#1154,#1155);
#970=AXIS2_PLACEMENT_3D('',#1433,#1157,#1158);
#971=AXIS2_PLACEMENT_3D('',#1434,#1159,#1160);
#972=AXIS2_PLACEMENT_3D('',#1437,#1161,#1162);
#973=AXIS2_PLACEMENT_3D('',#1456,#1164,#1165);
#974=AXIS2_PLACEMENT_3D('',#1477,#1167,#1168);
#975=AXIS2_PLACEMENT_3D('',#1478,#1169,#1170);
#976=AXIS2_PLACEMENT_3D('',#1480,#1171,#1172);
#977=AXIS2_PLACEMENT_3D('',#1484,#1174,#1175);
#978=AXIS2_PLACEMENT_3D('',#1487,#1177,#1178);
#979=AXIS2_PLACEMENT_3D('',#1488,#1179,#1180);
#980=AXIS2_PLACEMENT_3D('',#1492,#1182,#1183);
#981=AXIS2_PLACEMENT_3D('',#1494,#1185,#1186);
#982=AXIS2_PLACEMENT_3D('',#1497,#1188,#1189);
#983=AXIS2_PLACEMENT_3D('',#1498,#1190,#1191);
#984=AXIS2_PLACEMENT_3D('',#1502,#1193,#1194);
#985=AXIS2_PLACEMENT_3D('',#1504,#1196,#1197);
#986=AXIS2_PLACEMENT_3D('',#1505,#1198,#1199);
#987=AXIS2_PLACEMENT_3D('',#1506,#1200,#1201);
#988=AXIS2_PLACEMENT_3D('',#1510,#1203,#1204);
#989=AXIS2_PLACEMENT_3D('',#1514,#1206,#1207);
#990=AXIS2_PLACEMENT_3D('',#1517,#1209,#1210);
#991=AXIS2_PLACEMENT_3D('',#1519,#1211,#1212);
#992=AXIS2_PLACEMENT_3D('',#1520,#1213,#1214);
#993=AXIS2_PLACEMENT_3D('',#1524,#1216,#1217);
#994=AXIS2_PLACEMENT_3D('',#1526,#1219,#1220);
#995=AXIS2_PLACEMENT_3D('',#1530,#1223,#1224);
#996=AXIS2_PLACEMENT_3D('',#1534,#1226,#1227);
#997=AXIS2_PLACEMENT_3D('',#1536,#1229,#1230);
#998=AXIS2_PLACEMENT_3D('',#1540,#1233,#1234);
#999=AXIS2_PLACEMENT_3D('',#1543,#1236,#1237);
#1000=AXIS2_PLACEMENT_3D('',#1544,#1238,#1239);
#1001=AXIS2_PLACEMENT_3D('',#1548,#1242,#1243);
#1002=AXIS2_PLACEMENT_3D('',#1552,#1246,#1247);
#1003=AXIS2_PLACEMENT_3D('',#1554,#1248,#1249);
#1004=AXIS2_PLACEMENT_3D('',#1557,#1251,#1252);
#1005=AXIS2_PLACEMENT_3D('',#1559,#1253,#1254);
#1006=AXIS2_PLACEMENT_3D('',#1560,#1255,#1256);
#1007=AXIS2_PLACEMENT_3D('',#1562,#1257,#1258);
#1008=AXIS2_PLACEMENT_3D('',#1564,#1260,#1261);
#1009=AXIS2_PLACEMENT_3D('',#1568,#1264,#1265);
#1010=AXIS2_PLACEMENT_3D('',#1571,#1267,#1268);
#1011=AXIS2_PLACEMENT_3D('',#1572,#1269,#1270);
#1012=AXIS2_PLACEMENT_3D('',#1574,#1272,#1273);
#1013=AXIS2_PLACEMENT_3D('',#1575,#1274,#1275);
#1014=AXIS2_PLACEMENT_3D('',#1576,#1276,#1277);
#1015=AXIS2_PLACEMENT_3D('',#1578,#1279,#1280);
#1016=AXIS2_PLACEMENT_3D('',#1580,#1282,#1283);
#1017=AXIS2_PLACEMENT_3D('',#1582,#1285,#1286);
#1018=AXIS2_PLACEMENT_3D('',#1584,#1288,#1289);
#1019=DIRECTION('axis',(0.,0.,1.));
#1020=DIRECTION('refdir',(1.,0.,0.));
#1021=DIRECTION('center_axis',(1.,0.,0.));
#1022=DIRECTION('ref_axis',(0.,-0.737277336810125,0.675590207615659));
#1023=DIRECTION('center_axis',(-1.,0.,0.));
#1024=DIRECTION('ref_axis',(0.,-0.737277336810125,0.675590207615659));
#1025=DIRECTION('',(-1.,0.,0.));
#1026=DIRECTION('center_axis',(-1.,0.,0.));
#1027=DIRECTION('ref_axis',(0.,-0.737277336810125,0.675590207615659));
#1028=DIRECTION('',(1.,0.,0.));
#1029=DIRECTION('center_axis',(-1.,0.,0.));
#1030=DIRECTION('ref_axis',(0.,-1.,0.));
#1031=DIRECTION('',(0.,-1.,0.));
#1032=DIRECTION('center_axis',(-1.,0.,0.));
#1033=DIRECTION('ref_axis',(0.,-0.737277336810125,0.675590207615659));
#1034=DIRECTION('',(0.,0.0871557427476582,-0.996194698091746));
#1035=DIRECTION('center_axis',(1.,0.,0.));
#1036=DIRECTION('ref_axis',(0.,0.737277336810124,-0.67559020761566));
#1037=DIRECTION('',(0.,1.,0.));
#1038=DIRECTION('center_axis',(1.,0.,0.));
#1039=DIRECTION('ref_axis',(0.,0.737277336810124,-0.67559020761566));
#1040=DIRECTION('',(0.,0.0871557427476582,-0.996194698091746));
#1041=DIRECTION('center_axis',(0.,0.,1.));
#1042=DIRECTION('ref_axis',(1.,0.,0.));
#1043=DIRECTION('',(0.,-1.,0.));
#1044=DIRECTION('center_axis',(0.,0.,-1.));
#1045=DIRECTION('ref_axis',(0.707106781186547,0.707106781186547,0.));
#1046=DIRECTION('center_axis',(0.,0.,1.));
#1047=DIRECTION('ref_axis',(-0.840168050416806,-0.54232614454664,0.));
#1048=DIRECTION('',(-1.,0.,0.));
#1049=DIRECTION('',(0.,1.,0.));
#1050=DIRECTION('',(-1.,0.,0.));
#1051=DIRECTION('',(0.,1.,0.));
#1052=DIRECTION('',(-1.,0.,0.));
#1053=DIRECTION('center_axis',(0.,0.,1.));
#1054=DIRECTION('ref_axis',(0.840168050416806,-0.542326144546641,0.));
#1055=DIRECTION('center_axis',(0.,0.,-1.));
#1056=DIRECTION('ref_axis',(-0.707106781186547,0.707106781186547,0.));
#1057=DIRECTION('',(0.,1.,0.));
#1058=DIRECTION('',(1.,0.,0.));
#1059=DIRECTION('',(0.,1.,0.));
#1060=DIRECTION('',(1.,0.,0.));
#1061=DIRECTION('',(0.,1.,0.));
#1062=DIRECTION('',(1.,0.,0.));
#1063=DIRECTION('center_axis',(-1.,0.,0.));
#1064=DIRECTION('ref_axis',(0.,-0.737277336810125,0.675590207615659));
#1065=DIRECTION('center_axis',(1.,0.,0.));
#1066=DIRECTION('ref_axis',(0.,-0.737277336810125,0.675590207615659));
#1067=DIRECTION('',(-1.,0.,0.));
#1068=DIRECTION('center_axis',(0.,-0.996194698091746,-0.0871557427476582));
#1069=DIRECTION('ref_axis',(0.,-0.0871557427476582,0.996194698091746));
#1070=DIRECTION('',(0.,-0.0871557427476582,0.996194698091746));
#1071=DIRECTION('',(1.,0.,0.));
#1072=DIRECTION('center_axis',(-1.,0.,0.));
#1073=DIRECTION('ref_axis',(0.,-0.737277336810125,0.675590207615659));
#1074=DIRECTION('center_axis',(1.,0.,0.));
#1075=DIRECTION('ref_axis',(0.,-0.737277336810125,0.675590207615659));
#1076=DIRECTION('center_axis',(1.,0.,0.));
#1077=DIRECTION('ref_axis',(0.,-0.737277336810125,0.675590207615659));
#1078=DIRECTION('',(-1.,0.,0.));
#1079=DIRECTION('center_axis',(0.,-0.996194698091746,-0.0871557427476582));
#1080=DIRECTION('ref_axis',(0.,-0.0871557427476582,0.996194698091746));
#1081=DIRECTION('',(0.,-0.0871557427476582,0.996194698091746));
#1082=DIRECTION('',(1.,0.,0.));
#1083=DIRECTION('',(0.,-0.0871557427476582,0.996194698091746));
#1084=DIRECTION('center_axis',(-1.,0.,0.));
#1085=DIRECTION('ref_axis',(0.,-0.737277336810124,0.67559020761566));
#1086=DIRECTION('center_axis',(1.,0.,0.));
#1087=DIRECTION('ref_axis',(0.,-0.737277336810124,0.67559020761566));
#1088=DIRECTION('center_axis',(1.,0.,0.));
#1089=DIRECTION('ref_axis',(0.,-0.737277336810124,0.67559020761566));
#1090=DIRECTION('',(-1.,0.,0.));
#1091=DIRECTION('center_axis',(-1.,0.,0.));
#1092=DIRECTION('ref_axis',(0.,0.737277336810124,-0.67559020761566));
#1093=DIRECTION('center_axis',(-1.,0.,0.));
#1094=DIRECTION('ref_axis',(0.,0.737277336810124,-0.67559020761566));
#1095=DIRECTION('',(-1.,0.,0.));
#1096=DIRECTION('center_axis',(1.,0.,0.));
#1097=DIRECTION('ref_axis',(0.,1.,0.));
#1098=DIRECTION('center_axis',(-1.,0.,0.));
#1099=DIRECTION('ref_axis',(0.,0.737277336810124,-0.67559020761566));
#1100=DIRECTION('',(0.,1.,0.));
#1101=DIRECTION('center_axis',(1.,0.,0.));
#1102=DIRECTION('ref_axis',(0.,0.737277336810124,-0.67559020761566));
#1103=DIRECTION('center_axis',(1.,0.,0.));
#1104=DIRECTION('ref_axis',(0.,0.737277336810124,-0.67559020761566));
#1105=DIRECTION('',(1.,0.,0.));
#1106=DIRECTION('',(-1.,0.,0.));
#1107=DIRECTION('center_axis',(0.,0.,1.));
#1108=DIRECTION('ref_axis',(1.,0.,0.));
#1109=DIRECTION('',(-1.,0.,0.));
#1110=DIRECTION('',(0.,-1.,0.));
#1111=DIRECTION('',(-1.,0.,0.));
#1112=DIRECTION('',(0.,-1.,0.));
#1113=DIRECTION('',(1.,0.,0.));
#1114=DIRECTION('',(0.,1.,0.));
#1115=DIRECTION('center_axis',(0.,0.,-1.));
#1116=DIRECTION('ref_axis',(-1.,0.,0.));
#1117=DIRECTION('center_axis',(1.,0.,0.));
#1118=DIRECTION('ref_axis',(0.,0.737277336810124,-0.67559020761566));
#1119=DIRECTION('center_axis',(-1.,0.,0.));
#1120=DIRECTION('ref_axis',(0.,0.737277336810124,-0.67559020761566));
#1121=DIRECTION('center_axis',(1.,0.,0.));
#1122=DIRECTION('ref_axis',(0.,1.,0.));
#1123=DIRECTION('',(0.,-0.0871557427476582,0.996194698091746));
#1124=DIRECTION('center_axis',(-1.,0.,0.));
#1125=DIRECTION('ref_axis',(0.,0.737277336810124,-0.67559020761566));
#1126=DIRECTION('center_axis',(1.,0.,0.));
#1127=DIRECTION('ref_axis',(0.,0.737277336810124,-0.67559020761566));
#1128=DIRECTION('center_axis',(-1.,0.,0.));
#1129=DIRECTION('ref_axis',(0.,0.737277336810124,-0.67559020761566));
#1130=DIRECTION('',(1.,0.,0.));
#1131=DIRECTION('center_axis',(1.,0.,0.));
#1132=DIRECTION('ref_axis',(0.,1.,0.));
#1133=DIRECTION('',(0.,-0.0871557427476582,0.996194698091746));
#1134=DIRECTION('',(0.,0.,-1.));
#1135=DIRECTION('',(0.,1.,0.));
#1136=DIRECTION('',(0.,0.,-1.));
#1137=DIRECTION('center_axis',(-1.,0.,0.));
#1138=DIRECTION('ref_axis',(0.,-0.707106781186547,-0.707106781186547));
#1139=DIRECTION('center_axis',(-1.,0.,0.));
#1140=DIRECTION('ref_axis',(0.,0.,-1.));
#1141=DIRECTION('center_axis',(0.,-0.996194698091746,-0.0871557427476582));
#1142=DIRECTION('ref_axis',(0.,-0.0871557427476582,0.996194698091746));
#1143=DIRECTION('center_axis',(0.,-0.996194698091746,-0.0871557427476582));
#1144=DIRECTION('ref_axis',(0.,0.0871557427476582,-0.996194698091746));
#1145=DIRECTION('',(0.,0.0871557427476582,-0.996194698091746));
#1146=DIRECTION('center_axis',(0.,0.,1.));
#1147=DIRECTION('ref_axis',(1.,0.,0.));
#1148=DIRECTION('center_axis',(1.26882631385732E-16,-1.,0.));
#1149=DIRECTION('ref_axis',(-1.,-1.26882631385732E-16,0.));
#1150=DIRECTION('center_axis',(0.,0.,1.));
#1151=DIRECTION('ref_axis',(-1.,0.,0.));
#1152=DIRECTION('center_axis',(0.,0.,1.));
#1153=DIRECTION('ref_axis',(-1.,0.,0.));
#1154=DIRECTION('center_axis',(0.,0.,1.));
#1155=DIRECTION('ref_axis',(-1.,0.,0.));
#1156=DIRECTION('',(0.,0.,1.));
#1157=DIRECTION('center_axis',(0.,0.,-1.));
#1158=DIRECTION('ref_axis',(-1.,0.,0.));
#1159=DIRECTION('center_axis',(1.,0.,0.));
#1160=DIRECTION('ref_axis',(0.,0.707106781186548,0.707106781186548));
#1161=DIRECTION('center_axis',(-1.,0.,0.));
#1162=DIRECTION('ref_axis',(0.,0.707106781186548,0.707106781186548));
#1163=DIRECTION('',(1.,0.,0.));
#1164=DIRECTION('center_axis',(1.,0.,0.));
#1165=DIRECTION('ref_axis',(0.,0.707106781186548,0.707106781186548));
#1166=DIRECTION('',(1.,0.,0.));
#1167=DIRECTION('center_axis',(1.,0.,0.));
#1168=DIRECTION('ref_axis',(0.,0.707106781186548,0.707106781186548));
#1169=DIRECTION('center_axis',(0.,-1.,0.));
#1170=DIRECTION('ref_axis',(0.,0.,-1.));
#1171=DIRECTION('center_axis',(0.,-1.,0.));
#1172=DIRECTION('ref_axis',(0.707106781186547,0.,0.707106781186547));
#1173=DIRECTION('',(0.,0.,1.));
#1174=DIRECTION('center_axis',(0.,1.,0.));
#1175=DIRECTION('ref_axis',(0.707106781186547,0.,-0.707106781186548));
#1176=DIRECTION('',(0.,0.,-1.));
#1177=DIRECTION('center_axis',(0.,-1.,0.));
#1178=DIRECTION('ref_axis',(1.,0.,0.));
#1179=DIRECTION('center_axis',(0.,0.,-1.));
#1180=DIRECTION('ref_axis',(-0.840168050416806,-0.54232614454664,0.));
#1181=DIRECTION('',(0.,0.,1.));
#1182=DIRECTION('center_axis',(0.,0.,-1.));
#1183=DIRECTION('ref_axis',(-0.840168050416806,-0.54232614454664,0.));
#1184=DIRECTION('',(0.,0.,-1.));
#1185=DIRECTION('center_axis',(0.,0.,-1.));
#1186=DIRECTION('ref_axis',(0.707106781186547,0.707106781186547,0.));
#1187=DIRECTION('',(0.,0.,1.));
#1188=DIRECTION('center_axis',(0.,0.,1.));
#1189=DIRECTION('ref_axis',(0.707106781186547,0.707106781186547,0.));
#1190=DIRECTION('center_axis',(0.,0.,-1.));
#1191=DIRECTION('ref_axis',(0.840168050416806,-0.542326144546641,0.));
#1192=DIRECTION('',(0.,0.,-1.));
#1193=DIRECTION('center_axis',(0.,0.,-1.));
#1194=DIRECTION('ref_axis',(0.840168050416806,-0.542326144546641,0.));
#1195=DIRECTION('',(0.,0.,-1.));
#1196=DIRECTION('center_axis',(0.,0.,1.));
#1197=DIRECTION('ref_axis',(-0.707106781186547,0.707106781186547,0.));
#1198=DIRECTION('center_axis',(0.,0.,1.));
#1199=DIRECTION('ref_axis',(-0.707106781186547,0.707106781186547,0.));
#1200=DIRECTION('center_axis',(0.,-1.,0.));
#1201=DIRECTION('ref_axis',(0.,0.,-1.));
#1202=DIRECTION('',(0.,0.,1.));
#1203=DIRECTION('center_axis',(0.,1.,0.));
#1204=DIRECTION('ref_axis',(-0.707106781186548,0.,-0.707106781186548));
#1205=DIRECTION('',(-1.,0.,0.));
#1206=DIRECTION('center_axis',(0.,1.,0.));
#1207=DIRECTION('ref_axis',(0.704630379714668,0.,-0.709574540117641));
#1208=DIRECTION('',(-0.0069920559663247,0.,-0.99997555527791));
#1209=DIRECTION('center_axis',(0.,-1.,0.));
#1210=DIRECTION('ref_axis',(-0.704630379714668,0.,0.709574540117642));
#1211=DIRECTION('center_axis',(0.,-1.,0.));
#1212=DIRECTION('ref_axis',(1.,0.,0.));
#1213=DIRECTION('center_axis',(0.,1.,0.));
#1214=DIRECTION('ref_axis',(0.707106781186547,0.,-0.707106781186548));
#1215=DIRECTION('',(0.,1.,0.));
#1216=DIRECTION('center_axis',(0.,1.,0.));
#1217=DIRECTION('ref_axis',(-0.707106781186547,0.,-0.707106781186548));
#1218=DIRECTION('',(0.,1.,0.));
#1219=DIRECTION('center_axis',(-1.,0.,0.));
#1220=DIRECTION('ref_axis',(0.,0.,1.));
#1221=DIRECTION('',(0.,1.,0.));
#1222=DIRECTION('',(0.,0.,1.));
#1223=DIRECTION('center_axis',(0.,-1.,0.));
#1224=DIRECTION('ref_axis',(0.704630379714668,0.,-0.709574540117641));
#1225=DIRECTION('',(0.,1.,0.));
#1226=DIRECTION('center_axis',(0.,1.,0.));
#1227=DIRECTION('ref_axis',(0.704630379714668,0.,-0.709574540117641));
#1228=DIRECTION('',(0.,1.,0.));
#1229=DIRECTION('center_axis',(0.,0.,-1.));
#1230=DIRECTION('ref_axis',(1.,0.,0.));
#1231=DIRECTION('',(0.,1.,0.));
#1232=DIRECTION('',(-1.,0.,0.));
#1233=DIRECTION('center_axis',(0.,-1.,0.));
#1234=DIRECTION('ref_axis',(-0.707106781186548,0.,-0.707106781186548));
#1235=DIRECTION('',(0.,1.,0.));
#1236=DIRECTION('center_axis',(0.,1.,0.));
#1237=DIRECTION('ref_axis',(-0.707106781186548,0.,-0.707106781186548));
#1238=DIRECTION('center_axis',(-1.,0.,0.));
#1239=DIRECTION('ref_axis',(0.,0.,-1.));
#1240=DIRECTION('',(0.,-1.,0.));
#1241=DIRECTION('',(0.,0.,1.));
#1242=DIRECTION('center_axis',(0.,1.,0.));
#1243=DIRECTION('ref_axis',(-1.,0.,0.));
#1244=DIRECTION('',(1.,0.,0.));
#1245=DIRECTION('',(0.,0.,-1.));
#1246=DIRECTION('center_axis',(0.,-1.,0.));
#1247=DIRECTION('ref_axis',(0.707106781186547,0.,0.707106781186547));
#1248=DIRECTION('center_axis',(0.,-1.,0.));
#1249=DIRECTION('ref_axis',(-0.704630379714668,0.,0.709574540117642));
#1250=DIRECTION('',(-0.0069920559663247,0.,-0.99997555527791));
#1251=DIRECTION('center_axis',(0.,-1.,0.));
#1252=DIRECTION('ref_axis',(1.,0.,0.));
#1253=DIRECTION('center_axis',(0.,-1.,0.));
#1254=DIRECTION('ref_axis',(1.,0.,0.));
#1255=DIRECTION('center_axis',(-1.,0.,0.));
#1256=DIRECTION('ref_axis',(0.,-0.707106781186547,-0.707106781186547));
#1257=DIRECTION('center_axis',(1.,0.,0.));
#1258=DIRECTION('ref_axis',(0.,-0.707106781186547,-0.707106781186547));
#1259=DIRECTION('',(-1.,0.,0.));
#1260=DIRECTION('center_axis',(0.,1.,0.));
#1261=DIRECTION('ref_axis',(0.,0.,1.));
#1262=DIRECTION('',(1.,0.,0.));
#1263=DIRECTION('',(0.,0.,1.));
#1264=DIRECTION('center_axis',(-1.,0.,0.));
#1265=DIRECTION('ref_axis',(0.,-1.,0.));
#1266=DIRECTION('',(0.,-1.,0.));
#1267=DIRECTION('center_axis',(1.,0.,0.));
#1268=DIRECTION('ref_axis',(0.,0.,-1.));
#1269=DIRECTION('center_axis',(0.99997555527791,0.,-0.0069920559663247));
#1270=DIRECTION('ref_axis',(0.0069920559663247,0.,0.99997555527791));
#1271=DIRECTION('',(0.,1.,0.));
#1272=DIRECTION('center_axis',(0.,1.,0.));
#1273=DIRECTION('ref_axis',(-0.704630379714668,0.,0.709574540117642));
#1274=DIRECTION('center_axis',(0.,-1.,0.));
#1275=DIRECTION('ref_axis',(0.707106781186547,0.,0.707106781186547));
#1276=DIRECTION('center_axis',(0.,1.,0.));
#1277=DIRECTION('ref_axis',(1.,0.,0.));
#1278=DIRECTION('',(0.,1.,0.));
#1279=DIRECTION('center_axis',(0.,1.,0.));
#1280=DIRECTION('ref_axis',(1.,0.,0.));
#1281=DIRECTION('',(0.,1.,0.));
#1282=DIRECTION('center_axis',(1.,0.,0.));
#1283=DIRECTION('ref_axis',(0.,0.,-1.));
#1284=DIRECTION('',(0.,1.,0.));
#1285=DIRECTION('center_axis',(-1.,0.,0.));
#1286=DIRECTION('ref_axis',(0.,0.,-1.));
#1287=DIRECTION('',(-1.,0.,0.));
#1288=DIRECTION('center_axis',(0.,0.,1.));
#1289=DIRECTION('ref_axis',(1.,0.,0.));
#1290=CARTESIAN_POINT('',(0.,0.,0.));
#1291=CARTESIAN_POINT('Origin',(19.75,13.5241522326893,17.));
#1292=CARTESIAN_POINT('',(20.,10.5355681384141,16.738532771757));
#1293=CARTESIAN_POINT('',(20.,13.5241522326893,20.));
#1294=CARTESIAN_POINT('Origin',(20.,13.5241522326893,17.));
#1295=CARTESIAN_POINT('',(0.,10.5355681384141,16.738532771757));
#1296=CARTESIAN_POINT('',(19.75,10.5355681384141,16.738532771757));
#1297=CARTESIAN_POINT('',(0.,13.5241522326893,20.));
#1298=CARTESIAN_POINT('Origin',(0.,13.5241522326893,17.));
#1299=CARTESIAN_POINT('',(19.75,13.5241522326893,20.));
#1300=CARTESIAN_POINT('Origin',(20.,28.,0.));
#1301=CARTESIAN_POINT('',(20.,29.5241522326893,20.));
#1302=CARTESIAN_POINT('',(20.,0.,20.));
#1303=CARTESIAN_POINT('',(20.,26.5355681384141,16.738532771757));
#1304=CARTESIAN_POINT('Origin',(20.,29.5241522326893,17.));
#1305=CARTESIAN_POINT('',(20.,27.5244309851124,5.43577871373829));
#1306=CARTESIAN_POINT('',(20.,28.,0.));
#1307=CARTESIAN_POINT('',(20.,22.5434574946536,0.));
#1308=CARTESIAN_POINT('Origin',(20.,22.5434574946536,5.));
#1309=CARTESIAN_POINT('',(20.,6.54345749465365,0.));
#1310=CARTESIAN_POINT('',(20.,0.,0.));
#1311=CARTESIAN_POINT('',(20.,11.5244309851124,5.43577871373829));
#1312=CARTESIAN_POINT('Origin',(20.,6.54345749465365,5.));
#1313=CARTESIAN_POINT('',(20.,12.,0.));
#1314=CARTESIAN_POINT('Origin',(39.5,10.,20.));
#1315=CARTESIAN_POINT('',(0.,20.,20.));
#1316=CARTESIAN_POINT('',(0.,12.,20.));
#1317=CARTESIAN_POINT('',(-5.88235294117647,29.1129019910763,20.));
#1318=CARTESIAN_POINT('Origin',(-10.,20.,20.));
#1319=CARTESIAN_POINT('',(-9.54142706185518,33.,20.));
#1320=CARTESIAN_POINT('Origin',(-3.,35.4919333848297,20.));
#1321=CARTESIAN_POINT('',(14.0701667220902,33.,20.));
#1322=CARTESIAN_POINT('',(18.2937014180585,33.,20.));
#1323=CARTESIAN_POINT('',(14.0701667220902,50.,20.));
#1324=CARTESIAN_POINT('',(14.0701667220902,40.,20.));
#1325=CARTESIAN_POINT('',(65.,50.,20.));
#1326=CARTESIAN_POINT('',(0.,50.,20.));
#1327=CARTESIAN_POINT('',(65.,33.,20.));
#1328=CARTESIAN_POINT('',(65.,22.5,20.));
#1329=CARTESIAN_POINT('',(88.5414270618552,33.,20.));
#1330=CARTESIAN_POINT('',(59.25,33.,20.));
#1331=CARTESIAN_POINT('',(84.8823529411765,29.1129019910763,20.));
#1332=CARTESIAN_POINT('Origin',(82.,35.4919333848297,20.));
#1333=CARTESIAN_POINT('',(79.,20.,20.));
#1334=CARTESIAN_POINT('Origin',(89.,20.,20.));
#1335=CARTESIAN_POINT('',(79.,1.52415223268934,20.));
#1336=CARTESIAN_POINT('',(79.,-10.8748866352592,20.));
#1337=CARTESIAN_POINT('',(61.,1.52415223268933,20.));
#1338=CARTESIAN_POINT('',(59.25,1.52415223268933,20.));
#1339=CARTESIAN_POINT('',(61.,25.5241522326893,20.));
#1340=CARTESIAN_POINT('',(61.,-1.74977327051848,20.));
#1341=CARTESIAN_POINT('',(41.,25.5241522326893,20.));
#1342=CARTESIAN_POINT('',(50.25,25.5241522326893,20.));
#1343=CARTESIAN_POINT('',(41.,29.5241522326893,20.));
#1344=CARTESIAN_POINT('',(41.,24.,20.));
#1345=CARTESIAN_POINT('',(40.25,29.5241522326893,20.));
#1346=CARTESIAN_POINT('Origin',(40.25,29.5241522326893,17.));
#1347=CARTESIAN_POINT('',(41.,26.5355681384141,16.738532771757));
#1348=CARTESIAN_POINT('Origin',(41.,29.5241522326893,17.));
#1349=CARTESIAN_POINT('',(40.25,26.5355681384141,16.738532771757));
#1350=CARTESIAN_POINT('Origin',(41.,28.,0.));
#1351=CARTESIAN_POINT('',(41.,27.5244309851124,5.43577871373829));
#1352=CARTESIAN_POINT('',(41.,27.9848077530122,0.17364817766693));
#1353=CARTESIAN_POINT('',(40.25,27.5244309851124,5.43577871373829));
#1354=CARTESIAN_POINT('Origin',(50.25,25.5241522326893,17.));
#1355=CARTESIAN_POINT('',(41.,22.5355681384141,16.738532771757));
#1356=CARTESIAN_POINT('Origin',(41.,25.5241522326893,17.));
#1357=CARTESIAN_POINT('',(61.,22.5355681384141,16.738532771757));
#1358=CARTESIAN_POINT('Origin',(61.,25.5241522326893,17.));
#1359=CARTESIAN_POINT('',(50.25,22.5355681384141,16.738532771757));
#1360=CARTESIAN_POINT('Origin',(61.,24.,0.));
#1361=CARTESIAN_POINT('',(61.,23.5244309851124,5.43577871373829));
#1362=CARTESIAN_POINT('',(61.,23.9088465180733,1.04188906600158));
#1363=CARTESIAN_POINT('',(41.,23.5244309851124,5.43577871373829));
#1364=CARTESIAN_POINT('',(50.25,23.5244309851124,5.43577871373829));
#1365=CARTESIAN_POINT('',(41.,24.,0.));
#1366=CARTESIAN_POINT('Origin',(59.25,1.52415223268933,17.));
#1367=CARTESIAN_POINT('',(61.,-1.4644318615859,16.738532771757));
#1368=CARTESIAN_POINT('Origin',(61.,1.52415223268933,17.));
#1369=CARTESIAN_POINT('',(79.,-1.4644318615859,16.738532771757));
#1370=CARTESIAN_POINT('Origin',(79.,1.52415223268933,17.));
#1371=CARTESIAN_POINT('',(59.25,-1.4644318615859,16.738532771757));
#1372=CARTESIAN_POINT('Origin',(40.25,22.5434574946536,5.));
#1373=CARTESIAN_POINT('',(41.,22.5434574946536,0.));
#1374=CARTESIAN_POINT('Origin',(41.,22.5434574946536,5.));
#1375=CARTESIAN_POINT('',(40.25,22.5434574946536,0.));
#1376=CARTESIAN_POINT('Origin',(41.,24.,0.));
#1377=CARTESIAN_POINT('',(41.,18.5434574946536,0.));
#1378=CARTESIAN_POINT('Origin',(41.,18.5434574946536,5.));
#1379=CARTESIAN_POINT('',(41.,0.,0.));
#1380=CARTESIAN_POINT('Origin',(19.75,6.54345749465365,5.));
#1381=CARTESIAN_POINT('',(0.,6.54345749465365,0.));
#1382=CARTESIAN_POINT('',(0.,11.5244309851124,5.43577871373829));
#1383=CARTESIAN_POINT('Origin',(0.,6.54345749465365,5.));
#1384=CARTESIAN_POINT('',(19.75,11.5244309851124,5.43577871373829));
#1385=CARTESIAN_POINT('',(19.75,6.54345749465365,0.));
#1386=CARTESIAN_POINT('Origin',(39.5,4.,0.));
#1387=CARTESIAN_POINT('',(61.,18.5434574946536,0.));
#1388=CARTESIAN_POINT('',(50.25,18.5434574946536,0.));
#1389=CARTESIAN_POINT('',(61.,-5.45654250534636,0.));
#1390=CARTESIAN_POINT('',(61.,24.,0.));
#1391=CARTESIAN_POINT('',(79.,-5.45654250534636,0.));
#1392=CARTESIAN_POINT('',(59.25,-5.45654250534636,0.));
#1393=CARTESIAN_POINT('',(79.,-12.,0.));
#1394=CARTESIAN_POINT('',(79.,0.,0.));
#1395=CARTESIAN_POINT('',(0.,-12.,0.));
#1396=CARTESIAN_POINT('',(19.75,-12.,0.));
#1397=CARTESIAN_POINT('',(0.,0.,0.));
#1398=CARTESIAN_POINT('',(26.,5.00000014901161,0.));
#1399=CARTESIAN_POINT('Origin',(39.5,5.00000014901161,0.));
#1400=CARTESIAN_POINT('Origin',(50.25,18.5434574946536,5.));
#1401=CARTESIAN_POINT('Origin',(61.,18.5434574946536,5.));
#1402=CARTESIAN_POINT('Origin',(61.,0.,0.));
#1403=CARTESIAN_POINT('',(61.,-0.475569014887629,5.43577871373829));
#1404=CARTESIAN_POINT('',(61.,0.,0.));
#1405=CARTESIAN_POINT('Origin',(61.,-5.45654250534636,5.));
#1406=CARTESIAN_POINT('Origin',(59.25,-5.45654250534636,5.));
#1407=CARTESIAN_POINT('',(79.,-0.475569014887629,5.43577871373829));
#1408=CARTESIAN_POINT('Origin',(79.,-5.45654250534636,5.));
#1409=CARTESIAN_POINT('',(59.25,-0.475569014887629,5.43577871373829));
#1410=CARTESIAN_POINT('Origin',(79.,-20.,0.));
#1411=CARTESIAN_POINT('',(79.,-0.0759612349389593,0.868240888334652));
#1412=CARTESIAN_POINT('',(79.,20.,25.));
#1413=CARTESIAN_POINT('',(79.,20.,12.5));
#1414=CARTESIAN_POINT('',(79.,-17.,25.));
#1415=CARTESIAN_POINT('',(79.,-20.,25.));
#1416=CARTESIAN_POINT('',(79.,-17.,5.));
#1417=CARTESIAN_POINT('',(79.,-17.,0.));
#1418=CARTESIAN_POINT('Origin',(79.,-12.,5.));
#1419=CARTESIAN_POINT('',(79.,-8.99999985098839,11.0000002980232));
#1420=CARTESIAN_POINT('Origin',(79.,-8.99999985098839,7.00000029802323));
#1421=CARTESIAN_POINT('Origin',(79.,0.,0.));
#1422=CARTESIAN_POINT('Origin',(0.,10.2502267294815,20.));
#1423=CARTESIAN_POINT('',(0.,11.1251133647408,10.));
#1424=CARTESIAN_POINT('Origin',(39.5,5.00000014901161,4.));
#1425=CARTESIAN_POINT('',(30.,5.00000014901161,4.));
#1426=CARTESIAN_POINT('Origin',(26.,5.00000014901161,4.));
#1427=CARTESIAN_POINT('',(49.,5.00000014901162,4.));
#1428=CARTESIAN_POINT('Origin',(39.5,5.00000014901161,4.));
#1429=CARTESIAN_POINT('Origin',(39.5,5.00000014901161,4.));
#1430=CARTESIAN_POINT('Origin',(39.5,5.00000014901161,0.));
#1431=CARTESIAN_POINT('',(49.,5.00000014901161,25.));
#1432=CARTESIAN_POINT('',(49.,5.00000014901162,0.));
#1433=CARTESIAN_POINT('Origin',(39.5,5.00000014901161,25.));
#1434=CARTESIAN_POINT('Origin',(18.2937014180585,33.,13.));
#1435=CARTESIAN_POINT('',(-10.,40.,13.));
#1436=CARTESIAN_POINT('',(-10.,35.4919333847891,19.5414270618706));
#1437=CARTESIAN_POINT('Origin',(-10.,33.,13.));
#1438=CARTESIAN_POINT('',(4.53077470792071,40.,13.));
#1439=CARTESIAN_POINT('',(18.2937014180585,40.,13.));
#1440=CARTESIAN_POINT('Ctrl Pts',(4.53077470792071,40.,13.));
#1441=CARTESIAN_POINT('Ctrl Pts',(4.81474708906631,40.,13.9029746216483));
#1442=CARTESIAN_POINT('Ctrl Pts',(5.24844775730354,39.8168181518163,14.8054446066776));
#1443=CARTESIAN_POINT('Ctrl Pts',(6.3194345860709,39.1831812155964,16.390709398668));
#1444=CARTESIAN_POINT('Ctrl Pts',(6.95559580041249,38.7354339661285,17.0753446507188));
#1445=CARTESIAN_POINT('Ctrl Pts',(8.5071759248485,37.5778920621412,18.3982979476946));
#1446=CARTESIAN_POINT('Ctrl Pts',(9.58801355936409,36.7130327487458,19.0183609249833));
#1447=CARTESIAN_POINT('Ctrl Pts',(11.8331813148541,34.8724293709582,19.8191860723747));
#1448=CARTESIAN_POINT('Ctrl Pts',(12.9978712423749,33.897146764511,20.));
#1449=CARTESIAN_POINT('Ctrl Pts',(14.0701667220902,33.,20.));
#1450=CARTESIAN_POINT('Ctrl Pts',(-9.54142706185518,33.,20.));
#1451=CARTESIAN_POINT('Ctrl Pts',(-9.67271304266314,33.3446310695653,20.));
#1452=CARTESIAN_POINT('Ctrl Pts',(-9.7784938635224,33.7061067610064,19.9739541939181));
#1453=CARTESIAN_POINT('Ctrl Pts',(-9.95423004749209,34.5524004262105,19.8432146208552));
#1454=CARTESIAN_POINT('Ctrl Pts',(-9.99999999999738,35.0394292769301,19.7138068931311));
#1455=CARTESIAN_POINT('Ctrl Pts',(-10.,35.4919333847892,19.5414270618706));
#1456=CARTESIAN_POINT('Origin',(59.25,33.,13.));
#1457=CARTESIAN_POINT('',(89.,35.4919333848297,19.5414270618552));
#1458=CARTESIAN_POINT('Ctrl Pts',(89.,35.4919333848297,19.5414270618552));
#1459=CARTESIAN_POINT('Ctrl Pts',(89.,35.0394292769591,19.7138068931233));
#1460=CARTESIAN_POINT('Ctrl Pts',(88.9542300474951,34.5524004262249,19.843214620853));
#1461=CARTESIAN_POINT('Ctrl Pts',(88.7784938635224,33.7061067610063,19.9739541939181));
#1462=CARTESIAN_POINT('Ctrl Pts',(88.6727130426631,33.3446310695653,20.));
#1463=CARTESIAN_POINT('Ctrl Pts',(88.5414270618552,33.,20.));
#1464=CARTESIAN_POINT('',(74.5393920141695,40.,13.));
#1465=CARTESIAN_POINT('Ctrl Pts',(65.,33.,20.));
#1466=CARTESIAN_POINT('Ctrl Pts',(66.0722954797153,33.897146764511,20.));
#1467=CARTESIAN_POINT('Ctrl Pts',(67.236985407236,34.8724293709582,19.8191860723747));
#1468=CARTESIAN_POINT('Ctrl Pts',(69.4821531627261,36.7130327487458,19.0183609249833));
#1469=CARTESIAN_POINT('Ctrl Pts',(70.5629907972417,37.5778920621412,18.3982979476946));
#1470=CARTESIAN_POINT('Ctrl Pts',(72.1145709216777,38.7354339661285,17.0753446507188));
#1471=CARTESIAN_POINT('Ctrl Pts',(72.7507321360193,39.1831812155964,16.390709398668));
#1472=CARTESIAN_POINT('Ctrl Pts',(73.8217189647866,39.8168181518163,14.8054446066776));
#1473=CARTESIAN_POINT('Ctrl Pts',(74.2554196330238,40.,13.9029746216483));
#1474=CARTESIAN_POINT('Ctrl Pts',(74.5393920141695,40.,13.));
#1475=CARTESIAN_POINT('',(89.,40.,13.));
#1476=CARTESIAN_POINT('',(59.25,40.,13.));
#1477=CARTESIAN_POINT('Origin',(89.,33.,13.));
#1478=CARTESIAN_POINT('Origin',(79.,40.,25.));
#1479=CARTESIAN_POINT('',(75.,40.,10.));
#1480=CARTESIAN_POINT('Origin',(65.,40.,10.));
#1481=CARTESIAN_POINT('',(75.,40.,7.));
#1482=CARTESIAN_POINT('',(75.,40.,18.75));
#1483=CARTESIAN_POINT('',(89.,40.,7.));
#1484=CARTESIAN_POINT('Origin',(82.,40.,7.));
#1485=CARTESIAN_POINT('',(89.,40.,18.75));
#1486=CARTESIAN_POINT('',(78.,40.,7.));
#1487=CARTESIAN_POINT('Origin',(82.,40.,7.));
#1488=CARTESIAN_POINT('Origin',(-3.,35.4919333848297,6.25));
#1489=CARTESIAN_POINT('',(-5.88235294117647,29.1129019910763,25.));
#1490=CARTESIAN_POINT('',(-5.88235294117647,29.1129019910763,6.25));
#1491=CARTESIAN_POINT('',(-10.,35.4919333848297,25.));
#1492=CARTESIAN_POINT('Origin',(-3.,35.4919333848297,25.));
#1493=CARTESIAN_POINT('',(-10.,35.4919333848297,6.25));
#1494=CARTESIAN_POINT('Origin',(-10.,20.,6.25));
#1495=CARTESIAN_POINT('',(0.,20.,25.));
#1496=CARTESIAN_POINT('',(0.,20.,6.25));
#1497=CARTESIAN_POINT('Origin',(-10.,20.,25.));
#1498=CARTESIAN_POINT('Origin',(82.,35.4919333848297,12.5));
#1499=CARTESIAN_POINT('',(89.,35.4919333848297,25.));
#1500=CARTESIAN_POINT('',(89.,35.4919333848297,12.5));
#1501=CARTESIAN_POINT('',(84.8823529411765,29.1129019910763,25.));
#1502=CARTESIAN_POINT('Origin',(82.,35.4919333848297,25.));
#1503=CARTESIAN_POINT('',(84.8823529411765,29.1129019910763,12.5));
#1504=CARTESIAN_POINT('Origin',(89.,20.,12.5));
#1505=CARTESIAN_POINT('Origin',(89.,20.,25.));
#1506=CARTESIAN_POINT('Origin',(-2.9125971638829,40.,12.5));
#1507=CARTESIAN_POINT('',(-10.,40.,7.));
#1508=CARTESIAN_POINT('',(-10.,40.,18.75));
#1509=CARTESIAN_POINT('',(-3.,40.,0.));
#1510=CARTESIAN_POINT('Origin',(-3.,40.,7.));
#1511=CARTESIAN_POINT('',(-2.95122552901197,40.,0.));
#1512=CARTESIAN_POINT('',(-6.45629858194145,40.,0.));
#1513=CARTESIAN_POINT('',(4.0486033579334,40.,6.95105560823573));
#1514=CARTESIAN_POINT('Origin',(-2.95122552901197,40.,7.));
#1515=CARTESIAN_POINT('',(4.07041116931108,40.,10.0699205596633));
#1516=CARTESIAN_POINT('',(4.04353030709532,40.,6.22552840233389));
#1517=CARTESIAN_POINT('Origin',(14.0701667220902,40.,10.));
#1518=CARTESIAN_POINT('',(-7.00000000000001,40.,6.99999999999999));
#1519=CARTESIAN_POINT('Origin',(-3.00000000000001,40.,6.99999999999999));
#1520=CARTESIAN_POINT('Origin',(82.,32.5,7.));
#1521=CARTESIAN_POINT('',(75.,50.,7.));
#1522=CARTESIAN_POINT('',(75.,40.,7.));
#1523=CARTESIAN_POINT('',(89.,50.,7.));
#1524=CARTESIAN_POINT('Origin',(82.,50.,7.));
#1525=CARTESIAN_POINT('',(89.,40.,7.));
#1526=CARTESIAN_POINT('Origin',(75.,35.,12.5));
#1527=CARTESIAN_POINT('',(75.,50.,10.));
#1528=CARTESIAN_POINT('',(75.,40.,10.));
#1529=CARTESIAN_POINT('',(75.,50.,20.));
#1530=CARTESIAN_POINT('Origin',(-2.95122552901197,40.,7.));
#1531=CARTESIAN_POINT('',(-2.95122552901197,50.,0.));
#1532=CARTESIAN_POINT('',(-2.95122552901197,40.,0.));
#1533=CARTESIAN_POINT('',(4.0486033579334,50.,6.95105560823573));
#1534=CARTESIAN_POINT('Origin',(-2.95122552901197,50.,7.));
#1535=CARTESIAN_POINT('',(4.0486033579334,40.,6.95105560823573));
#1536=CARTESIAN_POINT('Origin',(-10.,40.,0.));
#1537=CARTESIAN_POINT('',(-3.,50.,0.));
#1538=CARTESIAN_POINT('',(-3.,40.,0.));
#1539=CARTESIAN_POINT('',(-10.,50.,0.));
#1540=CARTESIAN_POINT('Origin',(-3.,40.,7.));
#1541=CARTESIAN_POINT('',(-10.,50.,7.));
#1542=CARTESIAN_POINT('',(-10.,40.,7.));
#1543=CARTESIAN_POINT('Origin',(-3.,50.,7.));
#1544=CARTESIAN_POINT('Origin',(-10.,40.,25.));
#1545=CARTESIAN_POINT('',(-10.,50.,25.));
#1546=CARTESIAN_POINT('',(-10.,40.,25.));
#1547=CARTESIAN_POINT('',(-10.,50.,25.));
#1548=CARTESIAN_POINT('Origin',(79.,50.,20.));
#1549=CARTESIAN_POINT('',(89.,50.,25.));
#1550=CARTESIAN_POINT('',(79.,50.,25.));
#1551=CARTESIAN_POINT('',(89.,50.,20.));
#1552=CARTESIAN_POINT('Origin',(65.,50.,10.));
#1553=CARTESIAN_POINT('',(4.07041116931108,50.,10.0699205596633));
#1554=CARTESIAN_POINT('Origin',(14.0701667220902,50.,10.));
#1555=CARTESIAN_POINT('',(4.,50.,0.));
#1556=CARTESIAN_POINT('',(78.,50.,7.));
#1557=CARTESIAN_POINT('Origin',(82.,50.,7.));
#1558=CARTESIAN_POINT('',(-7.00000000000001,50.,6.99999999999999));
#1559=CARTESIAN_POINT('Origin',(-3.00000000000001,50.,6.99999999999999));
#1560=CARTESIAN_POINT('Origin',(19.75,-12.,5.));
#1561=CARTESIAN_POINT('',(0.,-17.,5.));
#1562=CARTESIAN_POINT('Origin',(0.,-12.,5.));
#1563=CARTESIAN_POINT('',(19.75,-17.,5.));
#1564=CARTESIAN_POINT('Origin',(0.,-17.,0.));
#1565=CARTESIAN_POINT('',(0.,-17.,25.));
#1566=CARTESIAN_POINT('',(19.75,-17.,25.));
#1567=CARTESIAN_POINT('',(0.,-17.,0.));
#1568=CARTESIAN_POINT('Origin',(0.,12.,0.));
#1569=CARTESIAN_POINT('',(0.,12.,25.));
#1570=CARTESIAN_POINT('',(0.,-8.99999985098839,11.0000002980232));
#1571=CARTESIAN_POINT('Origin',(0.,-8.99999985098839,7.00000029802323));
#1572=CARTESIAN_POINT('Origin',(4.,40.,0.));
#1573=CARTESIAN_POINT('',(4.07041116931108,25.,10.0699205596632));
#1574=CARTESIAN_POINT('Origin',(14.0701667220902,25.,10.));
#1575=CARTESIAN_POINT('Origin',(65.,22.5,10.));
#1576=CARTESIAN_POINT('Origin',(-3.00000000000001,30.,6.99999999999999));
#1577=CARTESIAN_POINT('',(-7.00000000000001,30.,6.99999999999999));
#1578=CARTESIAN_POINT('Origin',(82.,30.,7.));
#1579=CARTESIAN_POINT('',(78.,30.,7.));
#1580=CARTESIAN_POINT('Origin',(89.,35.,12.5));
#1581=CARTESIAN_POINT('',(89.,40.,25.));
#1582=CARTESIAN_POINT('Origin',(79.,-8.99999985098839,7.00000029802323));
#1583=CARTESIAN_POINT('',(79.,-8.99999985098839,11.0000002980232));
#1584=CARTESIAN_POINT('Origin',(39.5,10.,25.));
#1585=UNCERTAINTY_MEASURE_WITH_UNIT(LENGTH_MEASURE(0.01),#1589,
'DISTANCE_ACCURACY_VALUE',
'Maximum model space distance between geometric entities at asserted c
onnectivities');
#1586=UNCERTAINTY_MEASURE_WITH_UNIT(LENGTH_MEASURE(0.01),#1589,
'DISTANCE_ACCURACY_VALUE',
'Maximum model space distance between geometric entities at asserted c
onnectivities');
#1587=(
GEOMETRIC_REPRESENTATION_CONTEXT(3)
GLOBAL_UNCERTAINTY_ASSIGNED_CONTEXT((#1585))
GLOBAL_UNIT_ASSIGNED_CONTEXT((#1589,#1591,#1592))
REPRESENTATION_CONTEXT('','3D')
);
#1588=(
GEOMETRIC_REPRESENTATION_CONTEXT(3)
GLOBAL_UNCERTAINTY_ASSIGNED_CONTEXT((#1586))
GLOBAL_UNIT_ASSIGNED_CONTEXT((#1589,#1591,#1592))
REPRESENTATION_CONTEXT('','3D')
);
#1589=(
LENGTH_UNIT()
NAMED_UNIT(*)
SI_UNIT(.MILLI.,.METRE.)
);
#1590=(
LENGTH_UNIT()
NAMED_UNIT(*)
SI_UNIT($,.METRE.)
);
#1591=(
NAMED_UNIT(*)
PLANE_ANGLE_UNIT()
SI_UNIT($,.RADIAN.)
);
#1592=(
NAMED_UNIT(*)
SI_UNIT($,.STERADIAN.)
SOLID_ANGLE_UNIT()
);
#1593=SHAPE_DEFINITION_REPRESENTATION(#1594,#1595);
#1594=PRODUCT_DEFINITION_SHAPE('',$,#1597);
#1595=SHAPE_REPRESENTATION('',(#923),#1587);
#1596=PRODUCT_DEFINITION_CONTEXT('part definition',#1601,'design');
#1597=PRODUCT_DEFINITION('2026-05-01-10-49-41-282','SLOPY 90 FULL',#1598,
#1596);
#1598=PRODUCT_DEFINITION_FORMATION('',$,#1603);
#1599=PRODUCT_RELATED_PRODUCT_CATEGORY('SLOPY 90 FULL','SLOPY 90 FULL',
(#1603));
#1600=APPLICATION_PROTOCOL_DEFINITION('international standard',
'automotive_design',2009,#1601);
#1601=APPLICATION_CONTEXT(
'Core Data for Automotive Mechanical Design Process');
#1602=PRODUCT_CONTEXT('part definition',#1601,'mechanical');
#1603=PRODUCT('2026-05-01-10-49-41-282','SLOPY 90 FULL',$,(#1602));
#1604=PRESENTATION_STYLE_ASSIGNMENT((#1605));
#1605=SURFACE_STYLE_USAGE(.BOTH.,#1606);
#1606=SURFACE_SIDE_STYLE('',(#1607));
#1607=SURFACE_STYLE_FILL_AREA(#1608);
#1608=FILL_AREA_STYLE('Paint - Metallic (Yellow)',(#1609));
#1609=FILL_AREA_STYLE_COLOUR('Paint - Metallic (Yellow)',#1610);
#1610=COLOUR_RGB('Paint - Metallic (Yellow)',0.909803921568627,0.67843137254902,
0.137254901960784);
ENDSEC;
END-ISO-10303-21;
