<?xml version="1.0" encoding="utf-8"?>
<svg xmlns="http://www.w3.org/2000/svg" xml:space="preserve" viewBox="0 0 339 250">
  <path fill="#EE334E" d="M152.6 2c-24.4-5.6-57.7.6-89.1 18.7C14.2 49.1-11.8 96.1 5.2 125.6c10.9 18.9 36.8 26 66.9 21.4-13.8-3.2-24.7-10.1-30.8-20.7-17-29.5 9-76.5 58.2-104.9C117.2 11.1 135.6 4.7 152.6 2"/>
  <path fill="#00A651" d="M153 118.5c7.3 23.9 29.3 49.7 60.8 67.8 49.2 28.4 102.9 27.5 120-2 10.9-18.9 4.2-44.9-14.9-68.6 4.1 13.5 3.6 26.4-2.5 37.1-17 29.5-70.8 30.4-120 2-17.8-10.2-32.6-22.9-43.4-36.3"/>
  <path fill="#0081C8" d="M119.7 60.5c-17.1 18.3-28.3 50.2-28.3 86.6 0 56.8 27.6 102.9 61.7 102.9 21.8 0 40.9-18.8 51.9-47.2-9.6 10.3-21.1 16.3-33.4 16.3-34.1 0-61.7-46.1-61.7-102.9-.1-20.5 3.5-39.6 9.8-55.7"/>
</svg>